999
dxfrw 0.5.10
0
SECTION
2
HEADER
9
$ACADVER
1
AC1021
9
$HANDSEED
5
20000
9
$DWGCODEPAGE
3
ANSI_1252
9
$INSBASE
10
0
20
0
30
0
9
$EXTMIN
10
-42
20
-602.5
30
0
9
$EXTMAX
10
1000
20
400
30
0
9
$LIMMIN
10
0
20
0
9
$LIMMAX
10
420
20
297
9
$ORTHOMODE
70
0
9
$LTSCALE
40
1
9
$TEXTSTYLE
7
STANDARD
9
$CLAYER
8
0.18
9
$DIMASZ
40
5
9
$DIMLFAC
40
1
9
$DIMSCALE
40
1
9
$DIMEXO
40
2
9
$DIMEXE
40
2.5
9
$DIMTXT
40
10
9
$DIMTSZ
40
0
9
$DIMAUNIT
70
0
9
$DIMADEC
70
2
9
$DIMLUNIT
70
2
9
$DIMSTYLE
2
STANDARD
9
$DIMGAP
40
2
9
$DIMTIH
70
0
9
$LUNITS
70
2
9
$LUPREC
70
4
9
$AUNITS
70
0
9
$AUPREC
70
2
9
$SPLINESEGS
70
8
9
$GRIDMODE
70
1
9
$SNAPSTYLE
70
0
9
$GRIDUNIT
10
0
20
0
9
$PINSBASE
10
19.9568138196
20
166.476247601
30
0
9
$PLIMMIN
10
0
20
0
9
$PLIMMAX
10
210
20
297
9
$INSUNITS
70
4
9
$PSVPSCALE
40
0.177543262855
0
ENDSEC
0
SECTION
2
CLASSES
0
ENDSEC
0
SECTION
2
TABLES
0
TABLE
2
VPORT
5
8
330
0
100
AcDbSymbolTable
70
1
0
VPORT
5
31
330
2
100
AcDbSymbolTableRecord
100
AcDbViewportTableRecord
2
*ACTIVE
70
0
10
0
20
0
11
1
21
1
12
765.547156335
22
362.284481526
13
0
23
0
14
10
24
10
15
10
25
10
16
0
26
0
36
1
17
0
27
0
37
0
40
1404.43444252
41
2.09283819629
42
50
43
0
44
0
50
0
51
0
71
0
72
100
73
1
74
3
75
0
76
1
77
0
78
0
281
0
65
1
110
0
120
0
130
0
111
1
121
0
131
0
112
0
122
1
132
0
79
0
146
0
348
10020
60
7
61
5
292
1
282
1
141
0
142
0
63
250
421
3358443
0
ENDTAB
0
TABLE
2
LTYPE
5
5
330
0
100
AcDbSymbolTable
70
4
0
LTYPE
5
14
330
5
100
AcDbSymbolTableRecord
100
AcDbLinetypeTableRecord
2
ByBlock
70
0
3

72
65
73
0
40
0
0
LTYPE
5
15
330
5
100
AcDbSymbolTableRecord
100
AcDbLinetypeTableRecord
2
ByLayer
70
0
3

72
65
73
0
40
0
0
LTYPE
5
16
330
5
100
AcDbSymbolTableRecord
100
AcDbLinetypeTableRecord
2
Continuous
70
0
3
Solid line
72
65
73
0
40
0
0
LTYPE
5
32
330
5
100
AcDbSymbolTableRecord
100
AcDbLinetypeTableRecord
2
DOT
70
0
3
Dot . . . . . . . . . . . . . . . . . . . . . .
72
65
73
2
40
6.35
49
0
74
0
49
-6.35
74
0
0
LTYPE
5
33
330
5
100
AcDbSymbolTableRecord
100
AcDbLinetypeTableRecord
2
DOT2
70
0
3
Dot (.5x) .....................................
72
65
73
2
40
3.175
49
0
74
0
49
-3.175
74
0
0
LTYPE
5
34
330
5
100
AcDbSymbolTableRecord
100
AcDbLinetypeTableRecord
2
DOTX2
70
0
3
Dot (2x) .  .  .  .  .  .  .  .  .  .  .  .  .
72
65
73
2
40
12.7
49
0
74
0
49
-12.7
74
0
0
LTYPE
5
35
330
5
100
AcDbSymbolTableRecord
100
AcDbLinetypeTableRecord
2
DASHED
70
0
3
Dot . . . . . . . . . . . . . . . . . . . . . .
72
65
73
2
40
19.05
49
12.7
74
0
49
-6.35
74
0
0
LTYPE
5
36
330
5
100
AcDbSymbolTableRecord
100
AcDbLinetypeTableRecord
2
DASHED2
70
0
3
Dashed (.5x) _ _ _ _ _ _ _ _ _ _ _ _ _ _ _ _ _
72
65
73
2
40
9.525
49
6.35
74
0
49
-3.175
74
0
0
LTYPE
5
37
330
5
100
AcDbSymbolTableRecord
100
AcDbLinetypeTableRecord
2
DASHEDX2
70
0
3
Dashed (2x) ____  ____  ____  ____  ____  ___
72
65
73
2
40
38.1
49
25.4
74
0
49
-12.7
74
0
0
LTYPE
5
38
330
5
100
AcDbSymbolTableRecord
100
AcDbLinetypeTableRecord
2
DASHDOT
70
0
3
Dash dot __ . __ . __ . __ . __ . __ . __ . __
72
65
73
4
40
25.4
49
12.7
74
0
49
-6.35
74
0
49
0
74
0
49
-6.35
74
0
0
LTYPE
5
39
330
5
100
AcDbSymbolTableRecord
100
AcDbLinetypeTableRecord
2
DASHDOT2
70
0
3
Dash dot (.5x) _._._._._._._._._._._._._._._.
72
65
73
4
40
12.7
49
6.35
74
0
49
-3.175
74
0
49
0
74
0
49
-3.175
74
0
0
LTYPE
5
3A
330
5
100
AcDbSymbolTableRecord
100
AcDbLinetypeTableRecord
2
DASHDOTX2
70
0
3
Dash dot (2x) ____  .  ____  .  ____  .  ___
72
65
73
4
40
50.8
49
25.4
74
0
49
-12.7
74
0
49
0
74
0
49
-12.7
74
0
0
LTYPE
5
3B
330
5
100
AcDbSymbolTableRecord
100
AcDbLinetypeTableRecord
2
DIVIDE
70
0
3
Divide ____ . . ____ . . ____ . . ____ . . ____
72
65
73
6
40
31.75
49
12.7
74
0
49
-6.35
74
0
49
0
74
0
49
-6.35
74
0
49
0
74
0
49
-6.35
74
0
0
LTYPE
5
3C
330
5
100
AcDbSymbolTableRecord
100
AcDbLinetypeTableRecord
2
DIVIDE2
70
0
3
Divide (.5x) __..__..__..__..__..__..__..__.._
72
65
73
6
40
15.875
49
6.35
74
0
49
-3.175
74
0
49
0
74
0
49
-3.175
74
0
49
0
74
0
49
-3.175
74
0
0
LTYPE
5
3D
330
5
100
AcDbSymbolTableRecord
100
AcDbLinetypeTableRecord
2
DIVIDEX2
70
0
3
Divide (2x) ________  .  .  ________  .  .  _
72
65
73
6
40
63.5
49
25.4
74
0
49
-12.7
74
0
49
0
74
0
49
-12.7
74
0
49
0
74
0
49
-12.7
74
0
0
LTYPE
5
3E
330
5
100
AcDbSymbolTableRecord
100
AcDbLinetypeTableRecord
2
BORDER
70
0
3
Border __ __ . __ __ . __ __ . __ __ . __ __ .
72
65
73
6
40
44.45
49
12.7
74
0
49
-6.35
74
0
49
12.7
74
0
49
-6.35
74
0
49
0
74
0
49
-6.35
74
0
0
LTYPE
5
3F
330
5
100
AcDbSymbolTableRecord
100
AcDbLinetypeTableRecord
2
BORDER2
70
0
3
Border (.5x) __.__.__.__.__.__.__.__.__.__.__.
72
65
73
6
40
22.225
49
6.35
74
0
49
-3.175
74
0
49
6.35
74
0
49
-3.175
74
0
49
0
74
0
49
-3.175
74
0
0
LTYPE
5
40
330
5
100
AcDbSymbolTableRecord
100
AcDbLinetypeTableRecord
2
BORDERX2
70
0
3
Border (2x) ____  ____  .  ____  ____  .  ___
72
65
73
6
40
88.9
49
25.4
74
0
49
-12.7
74
0
49
25.4
74
0
49
-12.7
74
0
49
0
74
0
49
-12.7
74
0
0
LTYPE
5
41
330
5
100
AcDbSymbolTableRecord
100
AcDbLinetypeTableRecord
2
CENTER
70
0
3
Center ____ _ ____ _ ____ _ ____ _ ____ _ ____
72
65
73
4
40
50.8
49
31.75
74
0
49
-6.35
74
0
49
6.35
74
0
49
-6.35
74
0
0
LTYPE
5
42
330
5
100
AcDbSymbolTableRecord
100
AcDbLinetypeTableRecord
2
CENTER2
70
0
3
Center (.5x) ___ _ ___ _ ___ _ ___ _ ___ _ ___
72
65
73
4
40
28.575
49
19.05
74
0
49
-3.175
74
0
49
3.175
74
0
49
-3.175
74
0
0
LTYPE
5
43
330
5
100
AcDbSymbolTableRecord
100
AcDbLinetypeTableRecord
2
CENTERX2
70
0
3
Center (2x) ________  __  ________  __  _____
72
65
73
4
40
101.6
49
63.5
74
0
49
-12.7
74
0
49
12.7
74
0
49
-12.7
74
0
0
ENDTAB
0
TABLE
2
LAYER
5
2
330
0
100
AcDbSymbolTable
70
1
0
LAYER
5
10
330
2
100
AcDbSymbolTableRecord
100
AcDbLayerTableRecord
2
0
70
0
62
7
6
CONTINUOUS
370
0
390
F
0
LAYER
5
44
330
2
100
AcDbSymbolTableRecord
100
AcDbLayerTableRecord
2
0.18
70
0
62
7
6
CONTINUOUS
370
18
390
F
0
LAYER
5
45
330
2
100
AcDbSymbolTableRecord
100
AcDbLayerTableRecord
2
0.25
70
0
62
7
6
CONTINUOUS
370
25
390
F
0
LAYER
5
46
330
2
100
AcDbSymbolTableRecord
100
AcDbLayerTableRecord
2
0.35
70
0
62
7
6
CONTINUOUS
370
35
390
F
0
LAYER
5
47
330
2
100
AcDbSymbolTableRecord
100
AcDbLayerTableRecord
2
Hilf-BL
70
1
62
5
6
CONTINUOUS
370
0
390
F
0
LAYER
5
48
330
2
100
AcDbSymbolTableRecord
100
AcDbLayerTableRecord
2
Hilg-GE
70
1
62
2
6
CONTINUOUS
370
0
390
F
0
LAYER
5
49
330
2
100
AcDbSymbolTableRecord
100
AcDbLayerTableRecord
2
0.13-strichpunkt
70
0
62
7
6
DASHDOT
370
13
390
F
0
LAYER
5
4A
330
2
100
AcDbSymbolTableRecord
100
AcDbLayerTableRecord
2
Spanngurt
70
0
62
5
6
CONTINUOUS
370
100
390
F
0
ENDTAB
0
TABLE
2
STYLE
5
3
330
0
100
AcDbSymbolTable
70
3
0
STYLE
5
4B
330
2
100
AcDbSymbolTableRecord
100
AcDbTextStyleTableRecord
2
iso
70
0
40
0
41
1
50
0
71
0
42
1
3
iso
4

0
STYLE
5
4C
330
2
100
AcDbSymbolTableRecord
100
AcDbTextStyleTableRecord
2
Standard
70
0
40
0
41
1
50
0
71
0
42
1
3
txt
4

0
ENDTAB
0
TABLE
2
VIEW
5
6
330
0
100
AcDbSymbolTable
70
0
0
ENDTAB
0
TABLE
2
UCS
5
7
330
0
100
AcDbSymbolTable
70
0
0
ENDTAB
0
TABLE
2
APPID
5
9
330
0
100
AcDbSymbolTable
70
1
0
APPID
5
12
330
9
100
AcDbSymbolTableRecord
100
AcDbRegAppTableRecord
2
ACAD
70
0
0
ENDTAB
0
TABLE
2
DIMSTYLE
5
A
330
0
100
AcDbSymbolTable
70
1
100
AcDbDimStyleTable
71
1
0
DIMSTYLE
105
4D
330
A
100
AcDbSymbolTableRecord
100
AcDbDimStyleTableRecord
2
Standard
70
0
40
1
41
5
42
2
43
0.38
44
2.5
45
0
46
0
47
0
48
0
140
10
141
0.09
142
0
143
25.4
144
1
145
0
146
1
147
2
148
0
71
0
72
0
73
0
74
1
75
0
76
0
77
0
78
0
79
0
170
0
171
2
172
0
173
0
174
0
175
0
176
0
177
0
178
0
179
0
271
4
272
4
273
2
274
2
275
0
276
0
277
2
278
46
279
0
280
0
281
0
282
0
283
1
284
0
285
0
286
0
288
0
289
3
340
Standard
341

371
-2
372
-2
0
ENDTAB
0
TABLE
2
BLOCK_RECORD
5
1
330
0
100
AcDbSymbolTable
70
2
0
BLOCK_RECORD
5
1F
330
1
100
AcDbSymbolTableRecord
100
AcDbBlockTableRecord
2
*Model_Space
70
0
280
1
281
0
0
BLOCK_RECORD
5
1E
330
1
100
AcDbSymbolTableRecord
100
AcDbBlockTableRecord
2
*Paper_Space
70
0
280
1
281
0
0
BLOCK_RECORD
5
4E
330
1
100
AcDbSymbolTableRecord
100
AcDbBlockTableRecord
2
*D7
70
0
280
1
281
0
0
BLOCK_RECORD
5
51
330
1
100
AcDbSymbolTableRecord
100
AcDbBlockTableRecord
2
*D8
70
0
280
1
281
0
0
BLOCK_RECORD
5
54
330
1
100
AcDbSymbolTableRecord
100
AcDbBlockTableRecord
2
*D20
70
0
280
1
281
0
0
BLOCK_RECORD
5
57
330
1
100
AcDbSymbolTableRecord
100
AcDbBlockTableRecord
2
*D21
70
0
280
1
281
0
0
BLOCK_RECORD
5
5A
330
1
100
AcDbSymbolTableRecord
100
AcDbBlockTableRecord
2
*D13
70
0
280
1
281
0
0
BLOCK_RECORD
5
5D
330
1
100
AcDbSymbolTableRecord
100
AcDbBlockTableRecord
2
*D15
70
0
280
1
281
0
0
BLOCK_RECORD
5
60
330
1
100
AcDbSymbolTableRecord
100
AcDbBlockTableRecord
2
*D18
70
0
280
1
281
0
0
BLOCK_RECORD
5
63
330
1
100
AcDbSymbolTableRecord
100
AcDbBlockTableRecord
2
*D10
70
0
280
1
281
0
0
BLOCK_RECORD
5
66
330
1
100
AcDbSymbolTableRecord
100
AcDbBlockTableRecord
2
*D4
70
0
280
1
281
0
0
BLOCK_RECORD
5
69
330
1
100
AcDbSymbolTableRecord
100
AcDbBlockTableRecord
2
*D2
70
0
280
1
281
0
0
BLOCK_RECORD
5
6C
330
1
100
AcDbSymbolTableRecord
100
AcDbBlockTableRecord
2
*D19
70
0
280
1
281
0
0
BLOCK_RECORD
5
6F
330
1
100
AcDbSymbolTableRecord
100
AcDbBlockTableRecord
2
*D11
70
0
280
1
281
0
0
BLOCK_RECORD
5
72
330
1
100
AcDbSymbolTableRecord
100
AcDbBlockTableRecord
2
*D17
70
0
280
1
281
0
0
BLOCK_RECORD
5
75
330
1
100
AcDbSymbolTableRecord
100
AcDbBlockTableRecord
2
*D9
70
0
280
1
281
0
0
BLOCK_RECORD
5
78
330
1
100
AcDbSymbolTableRecord
100
AcDbBlockTableRecord
2
*D3
70
0
280
1
281
0
0
BLOCK_RECORD
5
7B
330
1
100
AcDbSymbolTableRecord
100
AcDbBlockTableRecord
2
*D1
70
0
280
1
281
0
0
BLOCK_RECORD
5
7E
330
1
100
AcDbSymbolTableRecord
100
AcDbBlockTableRecord
2
*D12
70
0
280
1
281
0
0
BLOCK_RECORD
5
81
330
1
100
AcDbSymbolTableRecord
100
AcDbBlockTableRecord
2
*D16
70
0
280
1
281
0
0
BLOCK_RECORD
5
84
330
1
100
AcDbSymbolTableRecord
100
AcDbBlockTableRecord
2
*D14
70
0
280
1
281
0
0
BLOCK_RECORD
5
87
330
1
100
AcDbSymbolTableRecord
100
AcDbBlockTableRecord
2
*D6
70
0
280
1
281
0
0
BLOCK_RECORD
5
8A
330
1
100
AcDbSymbolTableRecord
100
AcDbBlockTableRecord
2
*D5
70
0
280
1
281
0
0
ENDTAB
0
ENDSEC
0
SECTION
2
BLOCKS
0
BLOCK
5
20
330
1F
100
AcDbEntity
8
0
100
AcDbBlockBegin
2
*Model_Space
70
0
10
0
20
0
30
0
3
*Model_Space
1

0
ENDBLK
5
21
330
1F
100
AcDbEntity
8
0
100
AcDbBlockEnd
0
BLOCK
5
1C
330
1B
100
AcDbEntity
8
0
100
AcDbBlockBegin
2
*Paper_Space
70
0
10
0
20
0
30
0
3
*Paper_Space
1

0
ENDBLK
5
1D
330
1F
100
AcDbEntity
8
0
100
AcDbBlockEnd
0
BLOCK
5
4F
330
4E
100
AcDbEntity
8
0
100
AcDbBlockBegin
2
*D7
70
1
10
0
20
0
3
*D7
1

0
LINE
5
8D
100
AcDbEntity
8
0.18
6
CONTINUOUS
62
7
370
0
100
AcDbLine
10
185
20
30
11
215
21
30
0
SOLID
5
8E
100
AcDbEntity
8
0.18
6
CONTINUOUS
62
7
370
0
100
AcDbTrace
10
185
20
30
30
0
11
190
21
30.8325693155
31
0
12
190
22
29.1674306845
32
0
13
190
23
29.1674306845
33
0
0
SOLID
5
8F
100
AcDbEntity
8
0.18
6
CONTINUOUS
62
7
370
0
100
AcDbTrace
10
215
20
30
30
0
11
210
21
29.1674306845
31
0
12
210
22
30.8325693155
32
0
13
210
23
30.8325693155
33
0
0
MTEXT
5
90
100
AcDbEntity
8
0.18
6
CONTINUOUS
62
7
370
0
100
AcDbMText
10
200
20
37
30
0
40
10
41
12.2222222222
71
5
72
1
1
30
7
standard
210
0
220
0
230
1
50
0
73
2
44
1
0
LINE
5
91
100
AcDbEntity
8
0.18
6
CONTINUOUS
62
7
370
0
100
AcDbLine
10
185
20
56
11
185
21
27.5
0
LINE
5
92
100
AcDbEntity
8
0.18
6
CONTINUOUS
62
7
370
0
100
AcDbLine
10
215
20
56
11
215
21
27.5
0
ENDBLK
5
50
330
4E
100
AcDbEntity
8
0
100
AcDbBlockEnd
0
BLOCK
5
52
330
51
100
AcDbEntity
8
0
100
AcDbBlockBegin
2
*D8
70
1
10
0
20
0
3
*D8
1

0
LINE
5
93
100
AcDbEntity
8
0.18
6
CONTINUOUS
62
7
370
0
100
AcDbLine
10
200
20
90
11
215
21
90
0
SOLID
5
94
100
AcDbEntity
8
0.18
6
CONTINUOUS
62
7
370
0
100
AcDbTrace
10
200
20
90
30
0
11
205
21
90.8325693155
31
0
12
205
22
89.1674306845
32
0
13
205
23
89.1674306845
33
0
0
SOLID
5
95
100
AcDbEntity
8
0.18
6
CONTINUOUS
62
7
370
0
100
AcDbTrace
10
215
20
90
30
0
11
210
21
89.1674306845
31
0
12
210
22
90.8325693155
32
0
13
210
23
90.8325693155
33
0
0
MTEXT
5
96
100
AcDbEntity
8
0.18
6
CONTINUOUS
62
7
370
0
100
AcDbMText
10
207.5
20
97
30
0
40
10
41
10
71
5
72
1
1
15
7
standard
210
0
220
0
230
1
50
0
73
2
44
1
0
LINE
5
97
100
AcDbEntity
8
0.18
6
CONTINUOUS
62
7
370
0
100
AcDbLine
10
200
20
66
11
200
21
92.5
0
LINE
5
98
100
AcDbEntity
8
0.18
6
CONTINUOUS
62
7
370
0
100
AcDbLine
10
215
20
60
11
215
21
92.5
0
ENDBLK
5
53
330
51
100
AcDbEntity
8
0
100
AcDbBlockEnd
0
BLOCK
5
55
330
54
100
AcDbEntity
8
0
100
AcDbBlockBegin
2
*D20
70
1
10
0
20
0
3
*D20
1

0
LINE
5
99
100
AcDbEntity
8
0.18
6
CONTINUOUS
62
7
370
0
100
AcDbLine
10
800
20
252
11
470
21
252
0
SOLID
5
9A
100
AcDbEntity
8
0.18
6
CONTINUOUS
62
7
370
0
100
AcDbTrace
10
800
20
252
30
0
11
795
21
251.167430684
31
0
12
795
22
252.832569316
32
0
13
795
23
252.832569316
33
0
0
SOLID
5
9B
100
AcDbEntity
8
0.18
6
CONTINUOUS
62
7
370
0
100
AcDbTrace
10
470
20
252
30
0
11
475
21
252.832569316
31
0
12
475
22
251.167430684
32
0
13
475
23
251.167430684
33
0
0
MTEXT
5
9C
100
AcDbEntity
8
0.18
6
CONTINUOUS
62
7
370
0
100
AcDbMText
10
635
20
259
30
0
40
10
41
20
71
5
72
1
1
330
7
standard
210
0
220
0
230
1
50
360
73
2
44
1
0
LINE
5
9D
100
AcDbEntity
8
0.18
6
CONTINUOUS
62
7
370
0
100
AcDbLine
10
800
20
205.5
11
800
21
254.5
0
LINE
5
9E
100
AcDbEntity
8
0.18
6
CONTINUOUS
62
7
370
0
100
AcDbLine
10
470
20
4
11
470
21
254.5
0
ENDBLK
5
56
330
54
100
AcDbEntity
8
0
100
AcDbBlockEnd
0
BLOCK
5
58
330
57
100
AcDbEntity
8
0
100
AcDbBlockBegin
2
*D21
70
1
10
0
20
0
3
*D21
1

0
LINE
5
9F
100
AcDbEntity
8
0.18
6
CONTINUOUS
62
7
370
0
100
AcDbLine
10
670
20
342
11
470
21
342
0
SOLID
5
A0
100
AcDbEntity
8
0.18
6
CONTINUOUS
62
7
370
0
100
AcDbTrace
10
670
20
342
30
0
11
665
21
341.167430684
31
0
12
665
22
342.832569316
32
0
13
665
23
342.832569316
33
0
0
SOLID
5
A1
100
AcDbEntity
8
0.18
6
CONTINUOUS
62
7
370
0
100
AcDbTrace
10
470
20
342
30
0
11
475
21
342.832569316
31
0
12
475
22
341.167430684
32
0
13
475
23
341.167430684
33
0
0
MTEXT
5
A2
100
AcDbEntity
8
0.18
6
CONTINUOUS
62
7
370
0
100
AcDbMText
10
570
20
349
30
0
40
10
41
20
71
5
72
1
1
200
7
standard
210
0
220
0
230
1
50
360
73
2
44
1
0
LINE
5
A3
100
AcDbEntity
8
0.18
6
CONTINUOUS
62
7
370
0
100
AcDbLine
10
670
20
335.5
11
670
21
344.5
0
LINE
5
A4
100
AcDbEntity
8
0.18
6
CONTINUOUS
62
7
370
0
100
AcDbLine
10
470
20
4
11
470
21
344.5
0
ENDBLK
5
59
330
57
100
AcDbEntity
8
0
100
AcDbBlockEnd
0
BLOCK
5
5B
330
5A
100
AcDbEntity
8
0
100
AcDbBlockBegin
2
*D13
70
1
10
0
20
0
3
*D13
1

0
LINE
5
A5
100
AcDbEntity
8
0.18
6
CONTINUOUS
62
7
370
0
100
AcDbLine
10
468
20
2
11
437.5
21
2
0
LINE
5
A6
100
AcDbEntity
8
0.18
6
CONTINUOUS
62
7
370
0
100
AcDbLine
10
468
20
372
11
437.5
21
372
0
LINE
5
A7
100
AcDbEntity
8
0.18
6
CONTINUOUS
62
7
370
0
100
AcDbLine
10
440
20
2
11
440
21
372
0
SOLID
5
A8
100
AcDbEntity
8
0.18
6
CONTINUOUS
62
7
370
0
100
AcDbTrace
10
440
20
2
30
0
11
439.167430684
21
7
31
0
12
440.832569316
22
7
32
0
13
440.832569316
23
7
33
0
0
SOLID
5
A9
100
AcDbEntity
8
0.18
6
CONTINUOUS
62
7
370
0
100
AcDbTrace
10
440
20
372
30
0
11
440.832569316
21
367
31
0
12
439.167430684
22
367
32
0
13
439.167430684
23
367
33
0
0
MTEXT
5
AA
100
AcDbEntity
8
0.18
6
CONTINUOUS
62
7
370
0
100
AcDbMText
10
433
20
187
30
0
40
10
41
20
71
5
72
1
1
370
7
standard
210
0
220
0
230
1
50
90
73
2
44
1
0
ENDBLK
5
5C
330
5A
100
AcDbEntity
8
0
100
AcDbBlockEnd
0
BLOCK
5
5E
330
5D
100
AcDbEntity
8
0
100
AcDbBlockBegin
2
*D15
70
1
10
0
20
0
3
*D15
1

0
LINE
5
AB
100
AcDbEntity
8
0.18
6
CONTINUOUS
62
7
370
0
100
AcDbLine
10
520
20
172
11
520
21
2
0
SOLID
5
AC
100
AcDbEntity
8
0.18
6
CONTINUOUS
62
7
370
0
100
AcDbTrace
10
520
20
172
30
0
11
520.832569316
21
167
31
0
12
519.167430684
22
167
32
0
13
519.167430684
23
167
33
0
0
SOLID
5
AD
100
AcDbEntity
8
0.18
6
CONTINUOUS
62
7
370
0
100
AcDbTrace
10
520
20
2
30
0
11
519.167430684
21
7
31
0
12
520.832569316
22
7
32
0
13
520.832569316
23
7
33
0
0
MTEXT
5
AE
100
AcDbEntity
8
0.18
6
CONTINUOUS
62
7
370
0
100
AcDbMText
10
513
20
87
30
0
40
10
41
17.7777777778
71
5
72
1
1
170
7
standard
210
0
220
0
230
1
50
90
73
2
44
1
0
LINE
5
AF
100
AcDbEntity
8
0.18
6
CONTINUOUS
62
7
370
0
100
AcDbLine
10
523
20
172
11
517.5
21
172
0
LINE
5
B0
100
AcDbEntity
8
0.18
6
CONTINUOUS
62
7
370
0
100
AcDbLine
10
468
20
2
11
517.5
21
2
0
ENDBLK
5
5F
330
5D
100
AcDbEntity
8
0
100
AcDbBlockEnd
0
BLOCK
5
61
330
60
100
AcDbEntity
8
0
100
AcDbBlockBegin
2
*D18
70
1
10
0
20
0
3
*D18
1

0
LINE
5
B1
100
AcDbEntity
8
0.18
6
CONTINUOUS
62
7
370
0
100
AcDbLine
10
540
20
212
11
470
21
212
0
SOLID
5
B2
100
AcDbEntity
8
0.18
6
CONTINUOUS
62
7
370
0
100
AcDbTrace
10
540
20
212
30
0
11
535
21
211.167430684
31
0
12
535
22
212.832569316
32
0
13
535
23
212.832569316
33
0
0
SOLID
5
B3
100
AcDbEntity
8
0.18
6
CONTINUOUS
62
7
370
0
100
AcDbTrace
10
470
20
212
30
0
11
475
21
212.832569316
31
0
12
475
22
211.167430684
32
0
13
475
23
211.167430684
33
0
0
MTEXT
5
B4
100
AcDbEntity
8
0.18
6
CONTINUOUS
62
7
370
0
100
AcDbMText
10
505
20
219
30
0
40
10
41
12.2222222222
71
5
72
1
1
70
7
standard
210
0
220
0
230
1
50
360
73
2
44
1
0
LINE
5
B5
100
AcDbEntity
8
0.18
6
CONTINUOUS
62
7
370
0
100
AcDbLine
10
540
20
205.5
11
540
21
214.5
0
LINE
5
B6
100
AcDbEntity
8
0.18
6
CONTINUOUS
62
7
370
0
100
AcDbLine
10
470
20
4
11
470
21
214.5
0
ENDBLK
5
62
330
60
100
AcDbEntity
8
0
100
AcDbBlockEnd
0
BLOCK
5
64
330
63
100
AcDbEntity
8
0
100
AcDbBlockBegin
2
*D10
70
1
10
0
20
0
3
*D10
1

0
LINE
5
B7
100
AcDbEntity
8
0.18
6
CONTINUOUS
62
7
370
0
100
AcDbLine
10
-2
20
-60
11
-32.5
21
-60
0
LINE
5
B8
100
AcDbEntity
8
0.18
6
CONTINUOUS
62
7
370
0
100
AcDbLine
10
-2
20
-430
11
-32.5
21
-430
0
LINE
5
B9
100
AcDbEntity
8
0.18
6
CONTINUOUS
62
7
370
0
100
AcDbLine
10
-30
20
-60
11
-30
21
-430
0
SOLID
5
BA
100
AcDbEntity
8
0.18
6
CONTINUOUS
62
7
370
0
100
AcDbTrace
10
-30
20
-60
30
0
11
-29.1674306845
21
-65
31
0
12
-30.8325693155
22
-65
32
0
13
-30.8325693155
23
-65
33
0
0
SOLID
5
BB
100
AcDbEntity
8
0.18
6
CONTINUOUS
62
7
370
0
100
AcDbTrace
10
-30
20
-430
30
0
11
-30.8325693155
21
-425
31
0
12
-29.1674306845
22
-425
32
0
13
-29.1674306845
23
-425
33
0
0
MTEXT
5
BC
100
AcDbEntity
8
0.18
6
CONTINUOUS
62
7
370
0
100
AcDbMText
10
-37
20
-245
30
0
40
10
41
20
71
5
72
1
1
370
7
standard
210
0
220
0
230
1
50
90
73
2
44
1
0
ENDBLK
5
65
330
63
100
AcDbEntity
8
0
100
AcDbBlockEnd
0
BLOCK
5
67
330
66
100
AcDbEntity
8
0
100
AcDbBlockBegin
2
*D4
70
1
10
0
20
0
3
*D4
1

0
LINE
5
BD
100
AcDbEntity
8
0.18
6
CONTINUOUS
62
7
370
0
100
AcDbLine
10
0
20
70
11
70
21
70
0
SOLID
5
BE
100
AcDbEntity
8
0.18
6
CONTINUOUS
62
7
370
0
100
AcDbTrace
10
0
20
70
30
0
11
5
21
70.8325693155
31
0
12
5
22
69.1674306845
32
0
13
5
23
69.1674306845
33
0
0
SOLID
5
BF
100
AcDbEntity
8
0.18
6
CONTINUOUS
62
7
370
0
100
AcDbTrace
10
70
20
70
30
0
11
65
21
69.1674306845
31
0
12
65
22
70.8325693155
32
0
13
65
23
70.8325693155
33
0
0
MTEXT
5
C0
100
AcDbEntity
8
0.18
6
CONTINUOUS
62
7
370
0
100
AcDbMText
10
35
20
77
30
0
40
10
41
12.2222222222
71
5
72
1
1
70
7
standard
210
0
220
0
230
1
50
0
73
2
44
1
0
LINE
5
C1
100
AcDbEntity
8
0.18
6
CONTINUOUS
62
7
370
0
100
AcDbLine
10
1.22464679915e-16
20
2
11
1.53080849893e-16
21
72.5
0
LINE
5
C2
100
AcDbEntity
8
0.18
6
CONTINUOUS
62
7
370
0
100
AcDbLine
10
70
20
58.5
11
70
21
72.5
0
ENDBLK
5
68
330
66
100
AcDbEntity
8
0
100
AcDbBlockEnd
0
BLOCK
5
6A
330
69
100
AcDbEntity
8
0
100
AcDbBlockBegin
2
*D2
70
1
10
0
20
0
3
*D2
1

0
LINE
5
C3
100
AcDbEntity
8
0.18
6
CONTINUOUS
62
7
370
0
100
AcDbLine
10
-2
20
400
11
-32.5
21
400
0
LINE
5
C4
100
AcDbEntity
8
0.18
6
CONTINUOUS
62
7
370
0
100
AcDbLine
10
-2
20
2.44929359829e-16
11
-32.5
21
3.98010209723e-15
0
LINE
5
C5
100
AcDbEntity
8
0.18
6
CONTINUOUS
62
7
370
0
100
AcDbLine
10
-30
20
400
11
-30
21
3.67394039744e-15
0
SOLID
5
C6
100
AcDbEntity
8
0.18
6
CONTINUOUS
62
7
370
0
100
AcDbTrace
10
-30
20
400
30
0
11
-29.1674306845
21
395
31
0
12
-30.8325693155
22
395
32
0
13
-30.8325693155
23
395
33
0
0
SOLID
5
C7
100
AcDbEntity
8
0.18
6
CONTINUOUS
62
7
370
0
100
AcDbTrace
10
-30
20
3.67394039744e-15
30
0
11
-30.8325693155
21
5
31
0
12
-29.1674306845
22
5
32
0
13
-29.1674306845
23
5
33
0
0
MTEXT
5
C8
100
AcDbEntity
8
0.18
6
CONTINUOUS
62
7
370
0
100
AcDbMText
10
-37
20
200
30
0
40
10
41
21.1111111111
71
5
72
1
1
400
7
standard
210
0
220
0
230
1
50
90
73
2
44
1
0
ENDBLK
5
6B
330
69
100
AcDbEntity
8
0
100
AcDbBlockEnd
0
BLOCK
5
6D
330
6C
100
AcDbEntity
8
0
100
AcDbBlockBegin
2
*D19
70
1
10
0
20
0
3
*D19
1

0
LINE
5
C9
100
AcDbEntity
8
0.18
6
CONTINUOUS
62
7
370
0
100
AcDbLine
10
670
20
232
11
470
21
232
0
SOLID
5
CA
100
AcDbEntity
8
0.18
6
CONTINUOUS
62
7
370
0
100
AcDbTrace
10
670
20
232
30
0
11
665
21
231.167430684
31
0
12
665
22
232.832569316
32
0
13
665
23
232.832569316
33
0
0
SOLID
5
CB
100
AcDbEntity
8
0.18
6
CONTINUOUS
62
7
370
0
100
AcDbTrace
10
470
20
232
30
0
11
475
21
232.832569316
31
0
12
475
22
231.167430684
32
0
13
475
23
231.167430684
33
0
0
MTEXT
5
CC
100
AcDbEntity
8
0.18
6
CONTINUOUS
62
7
370
0
100
AcDbMText
10
570
20
239
30
0
40
10
41
20
71
5
72
1
1
200
7
standard
210
0
220
0
230
1
50
360
73
2
44
1
0
LINE
5
CD
100
AcDbEntity
8
0.18
6
CONTINUOUS
62
7
370
0
100
AcDbLine
10
670
20
205.5
11
670
21
234.5
0
LINE
5
CE
100
AcDbEntity
8
0.18
6
CONTINUOUS
62
7
370
0
100
AcDbLine
10
470
20
4
11
470
21
234.5
0
ENDBLK
5
6E
330
6C
100
AcDbEntity
8
0
100
AcDbBlockEnd
0
BLOCK
5
70
330
6F
100
AcDbEntity
8
0
100
AcDbBlockBegin
2
*D11
70
1
10
0
20
0
3
*D11
1

0
LINE
5
CF
100
AcDbEntity
8
0.18
6
CONTINUOUS
62
7
370
0
100
AcDbLine
10
48
20
-415
11
48
21
-430
0
SOLID
5
D0
100
AcDbEntity
8
0.18
6
CONTINUOUS
62
7
370
0
100
AcDbTrace
10
48
20
-415
30
0
11
48.8325693155
21
-420
31
0
12
47.1674306845
22
-420
32
0
13
47.1674306845
23
-420
33
0
0
SOLID
5
D1
100
AcDbEntity
8
0.18
6
CONTINUOUS
62
7
370
0
100
AcDbTrace
10
48
20
-430
30
0
11
47.1674306845
21
-425
31
0
12
48.8325693155
22
-425
32
0
13
48.8325693155
23
-425
33
0
0
MTEXT
5
D2
100
AcDbEntity
8
0.18
6
CONTINUOUS
62
7
370
0
100
AcDbMText
10
41
20
-422.5
30
0
40
10
41
10
71
5
72
1
1
15
7
standard
210
0
220
0
230
1
50
90
73
2
44
1
0
LINE
5
D3
100
AcDbEntity
8
0.18
6
CONTINUOUS
62
7
370
0
100
AcDbLine
10
53
20
-415
11
45.5
21
-415
0
LINE
5
D4
100
AcDbEntity
8
0.18
6
CONTINUOUS
62
7
370
0
100
AcDbLine
10
-2
20
-430
11
45.5
21
-430
0
ENDBLK
5
71
330
6F
100
AcDbEntity
8
0
100
AcDbBlockEnd
0
BLOCK
5
73
330
72
100
AcDbEntity
8
0
100
AcDbBlockBegin
2
*D17
70
1
10
0
20
0
3
*D17
1

0
LINE
5
D5
100
AcDbEntity
8
0.18
6
CONTINUOUS
62
7
370
0
100
AcDbLine
10
640
20
42
11
640
21
2
0
SOLID
5
D6
100
AcDbEntity
8
0.18
6
CONTINUOUS
62
7
370
0
100
AcDbTrace
10
640
20
42
30
0
11
640.832569316
21
37
31
0
12
639.167430684
22
37
32
0
13
639.167430684
23
37
33
0
0
SOLID
5
D7
100
AcDbEntity
8
0.18
6
CONTINUOUS
62
7
370
0
100
AcDbTrace
10
640
20
2
30
0
11
639.167430684
21
7
31
0
12
640.832569316
22
7
32
0
13
640.832569316
23
7
33
0
0
MTEXT
5
D8
100
AcDbEntity
8
0.18
6
CONTINUOUS
62
7
370
0
100
AcDbMText
10
633
20
22
30
0
40
10
41
13.3333333333
71
5
72
1
1
40
7
standard
210
0
220
0
230
1
50
90
73
2
44
1
0
LINE
5
D9
100
AcDbEntity
8
0.18
6
CONTINUOUS
62
7
370
0
100
AcDbLine
10
653
20
42
11
637.5
21
42
0
LINE
5
DA
100
AcDbEntity
8
0.18
6
CONTINUOUS
62
7
370
0
100
AcDbLine
10
468
20
2
11
637.5
21
2
0
ENDBLK
5
74
330
72
100
AcDbEntity
8
0
100
AcDbBlockEnd
0
BLOCK
5
76
330
75
100
AcDbEntity
8
0
100
AcDbBlockBegin
2
*D9
70
1
10
0
20
0
3
*D9
1

0
LINE
5
DB
100
AcDbEntity
8
0.18
6
CONTINUOUS
62
7
370
0
100
AcDbLine
10
-6.83352913924e-14
20
-432
11
-7.39380504985e-14
21
-462.5
0
LINE
5
DC
100
AcDbEntity
8
0.18
6
CONTINUOUS
62
7
370
0
100
AcDbLine
10
400
20
-432
11
400
21
-462.5
0
LINE
5
DD
100
AcDbEntity
8
0.18
6
CONTINUOUS
62
7
370
0
100
AcDbLine
10
-7.34788079488e-14
20
-460
11
400
21
-460
0
SOLID
5
DE
100
AcDbEntity
8
0.18
6
CONTINUOUS
62
7
370
0
100
AcDbTrace
10
-7.34788079488e-14
20
-460
30
0
11
5
21
-459.167430684
31
0
12
5
22
-460.832569316
32
0
13
5
23
-460.832569316
33
0
0
SOLID
5
DF
100
AcDbEntity
8
0.18
6
CONTINUOUS
62
7
370
0
100
AcDbTrace
10
400
20
-460
30
0
11
395
21
-460.832569316
31
0
12
395
22
-459.167430684
32
0
13
395
23
-459.167430684
33
0
0
MTEXT
5
E0
100
AcDbEntity
8
0.18
6
CONTINUOUS
62
7
370
0
100
AcDbMText
10
200
20
-453
30
0
40
10
41
21.1111111111
71
5
72
1
1
400
7
standard
210
0
220
0
230
1
50
0
73
2
44
1
0
ENDBLK
5
77
330
75
100
AcDbEntity
8
0
100
AcDbBlockEnd
0
BLOCK
5
79
330
78
100
AcDbEntity
8
0
100
AcDbBlockBegin
2
*D3
70
1
10
0
20
0
3
*D3
1

0
LINE
5
E1
100
AcDbEntity
8
0.18
6
CONTINUOUS
62
7
370
0
100
AcDbLine
10
40
20
0
11
40
21
58
0
SOLID
5
E2
100
AcDbEntity
8
0.18
6
CONTINUOUS
62
7
370
0
100
AcDbTrace
10
40
20
0
30
0
11
39.1674306845
21
5
31
0
12
40.8325693155
22
5
32
0
13
40.8325693155
23
5
33
0
0
SOLID
5
E3
100
AcDbEntity
8
0.18
6
CONTINUOUS
62
7
370
0
100
AcDbTrace
10
40
20
58
30
0
11
40.8325693155
21
53
31
0
12
39.1674306845
22
53
32
0
13
39.1674306845
23
53
33
0
0
MTEXT
5
E4
100
AcDbEntity
8
0.18
6
CONTINUOUS
62
7
370
0
100
AcDbMText
10
33
20
29
30
0
40
10
41
12.2222222222
71
5
72
1
1
58
7
standard
210
0
220
0
230
1
50
90
73
2
44
1
0
LINE
5
E5
100
AcDbEntity
8
0.18
6
CONTINUOUS
62
7
370
0
100
AcDbLine
10
2
20
0
11
42.5
21
0
0
LINE
5
E6
100
AcDbEntity
8
0.18
6
CONTINUOUS
62
7
370
0
100
AcDbLine
10
57
20
58
11
42.5
21
58
0
ENDBLK
5
7A
330
78
100
AcDbEntity
8
0
100
AcDbBlockEnd
0
BLOCK
5
7C
330
7B
100
AcDbEntity
8
0
100
AcDbBlockBegin
2
*D1
70
1
10
0
20
0
3
*D1
1

0
LINE
5
E7
100
AcDbEntity
8
0.18
6
CONTINUOUS
62
7
370
0
100
AcDbLine
10
-3.67394039744e-16
20
-2
11
-5.97015314584e-15
21
-32.5
0
LINE
5
E8
100
AcDbEntity
8
0.18
6
CONTINUOUS
62
7
370
0
100
AcDbLine
10
400
20
-2
11
400
21
-32.5
0
LINE
5
E9
100
AcDbEntity
8
0.18
6
CONTINUOUS
62
7
370
0
100
AcDbLine
10
-5.51091059616e-15
20
-30
11
400
21
-30
0
SOLID
5
EA
100
AcDbEntity
8
0.18
6
CONTINUOUS
62
7
370
0
100
AcDbTrace
10
-5.51091059616e-15
20
-30
30
0
11
5
21
-29.1674306845
31
0
12
5
22
-30.8325693155
32
0
13
5
23
-30.8325693155
33
0
0
SOLID
5
EB
100
AcDbEntity
8
0.18
6
CONTINUOUS
62
7
370
0
100
AcDbTrace
10
400
20
-30
30
0
11
395
21
-30.8325693155
31
0
12
395
22
-29.1674306845
32
0
13
395
23
-29.1674306845
33
0
0
MTEXT
5
EC
100
AcDbEntity
8
0.18
6
CONTINUOUS
62
7
370
0
100
AcDbMText
10
200
20
-23
30
0
40
10
41
21.1111111111
71
5
72
1
1
400
7
standard
210
0
220
0
230
1
50
0
73
2
44
1
0
ENDBLK
5
7D
330
7B
100
AcDbEntity
8
0
100
AcDbBlockEnd
0
BLOCK
5
7F
330
7E
100
AcDbEntity
8
0
100
AcDbBlockBegin
2
*D12
70
1
10
0
20
0
3
*D12
1

0
LINE
5
ED
100
AcDbEntity
8
0.18
6
CONTINUOUS
62
7
370
0
100
AcDbLine
10
70
20
-400
11
-6.79678973527e-14
21
-400
0
SOLID
5
EE
100
AcDbEntity
8
0.18
6
CONTINUOUS
62
7
370
0
100
AcDbTrace
10
70
20
-400
30
0
11
65
21
-400.832569316
31
0
12
65
22
-399.167430684
32
0
13
65
23
-399.167430684
33
0
0
SOLID
5
EF
100
AcDbEntity
8
0.18
6
CONTINUOUS
62
7
370
0
100
AcDbTrace
10
-6.79678973527e-14
20
-400
30
0
11
5
21
-399.167430684
31
0
12
5
22
-400.832569316
32
0
13
5
23
-400.832569316
33
0
0
MTEXT
5
F0
100
AcDbEntity
8
0.18
6
CONTINUOUS
62
7
370
0
100
AcDbMText
10
35
20
-393
30
0
40
10
41
12.2222222222
71
5
72
1
1
70
7
standard
210
0
220
0
230
1
50
360
73
2
44
1
0
LINE
5
F1
100
AcDbEntity
8
0.18
6
CONTINUOUS
62
7
370
0
100
AcDbLine
10
70
20
-411.5
11
70
21
-397.5
0
LINE
5
F2
100
AcDbEntity
8
0.18
6
CONTINUOUS
62
7
370
0
100
AcDbLine
10
-6.78454326728e-14
20
-428
11
-6.78148165028e-14
21
-397.5
0
ENDBLK
5
80
330
7E
100
AcDbEntity
8
0
100
AcDbBlockEnd
0
BLOCK
5
82
330
81
100
AcDbEntity
8
0
100
AcDbBlockBegin
2
*D16
70
1
10
0
20
0
3
*D16
1

0
LINE
5
F3
100
AcDbEntity
8
0.18
6
CONTINUOUS
62
7
370
0
100
AcDbLine
10
500
20
202
11
500
21
2
0
SOLID
5
F4
100
AcDbEntity
8
0.18
6
CONTINUOUS
62
7
370
0
100
AcDbTrace
10
500
20
202
30
0
11
500.832569316
21
197
31
0
12
499.167430684
22
197
32
0
13
499.167430684
23
197
33
0
0
SOLID
5
F5
100
AcDbEntity
8
0.18
6
CONTINUOUS
62
7
370
0
100
AcDbTrace
10
500
20
2
30
0
11
499.167430684
21
7
31
0
12
500.832569316
22
7
32
0
13
500.832569316
23
7
33
0
0
MTEXT
5
F6
100
AcDbEntity
8
0.18
6
CONTINUOUS
62
7
370
0
100
AcDbMText
10
493
20
102
30
0
40
10
41
20
71
5
72
1
1
200
7
standard
210
0
220
0
230
1
50
90
73
2
44
1
0
LINE
5
F7
100
AcDbEntity
8
0.18
6
CONTINUOUS
62
7
370
0
100
AcDbLine
10
523
20
202
11
497.5
21
202
0
LINE
5
F8
100
AcDbEntity
8
0.18
6
CONTINUOUS
62
7
370
0
100
AcDbLine
10
468
20
2
11
497.5
21
2
0
ENDBLK
5
83
330
81
100
AcDbEntity
8
0
100
AcDbBlockEnd
0
BLOCK
5
85
330
84
100
AcDbEntity
8
0
100
AcDbBlockBegin
2
*D14
70
1
10
0
20
0
3
*D14
1

0
LINE
5
F9
100
AcDbEntity
8
0.18
6
CONTINUOUS
62
7
370
0
100
AcDbLine
10
470
20
0
11
470
21
-30.5
0
LINE
5
FA
100
AcDbEntity
8
0.18
6
CONTINUOUS
62
7
370
0
100
AcDbLine
10
870
20
0
11
870
21
-30.5
0
LINE
5
FB
100
AcDbEntity
8
0.18
6
CONTINUOUS
62
7
370
0
100
AcDbLine
10
470
20
-28
11
870
21
-28
0
SOLID
5
FC
100
AcDbEntity
8
0.18
6
CONTINUOUS
62
7
370
0
100
AcDbTrace
10
470
20
-28
30
0
11
475
21
-27.1674306845
31
0
12
475
22
-28.8325693155
32
0
13
475
23
-28.8325693155
33
0
0
SOLID
5
FD
100
AcDbEntity
8
0.18
6
CONTINUOUS
62
7
370
0
100
AcDbTrace
10
870
20
-28
30
0
11
865
21
-28.8325693155
31
0
12
865
22
-27.1674306845
32
0
13
865
23
-27.1674306845
33
0
0
MTEXT
5
FE
100
AcDbEntity
8
0.18
6
CONTINUOUS
62
7
370
0
100
AcDbMText
10
670
20
-21
30
0
40
10
41
21.1111111111
71
5
72
1
1
400
7
standard
210
0
220
0
230
1
50
0
73
2
44
1
0
ENDBLK
5
86
330
84
100
AcDbEntity
8
0
100
AcDbBlockEnd
0
BLOCK
5
88
330
87
100
AcDbEntity
8
0
100
AcDbBlockBegin
2
*D6
70
1
10
0
20
0
3
*D6
1

0
LINE
5
FF
100
AcDbEntity
8
0.18
6
CONTINUOUS
62
7
370
0
100
AcDbLine
10
0
20
110
11
330
21
110
0
SOLID
5
100
100
AcDbEntity
8
0.18
6
CONTINUOUS
62
7
370
0
100
AcDbTrace
10
0
20
110
30
0
11
5
21
110.832569316
31
0
12
5
22
109.167430684
32
0
13
5
23
109.167430684
33
0
0
SOLID
5
101
100
AcDbEntity
8
0.18
6
CONTINUOUS
62
7
370
0
100
AcDbTrace
10
330
20
110
30
0
11
325
21
109.167430684
31
0
12
325
22
110.832569316
32
0
13
325
23
110.832569316
33
0
0
MTEXT
5
102
100
AcDbEntity
8
0.18
6
CONTINUOUS
62
7
370
0
100
AcDbMText
10
165
20
117
30
0
40
10
41
20
71
5
72
1
1
330
7
standard
210
0
220
0
230
1
50
0
73
2
44
1
0
LINE
5
103
100
AcDbEntity
8
0.18
6
CONTINUOUS
62
7
370
0
100
AcDbLine
10
1.22464679915e-16
20
2
11
1.53080849893e-16
21
112.5
0
LINE
5
104
100
AcDbEntity
8
0.18
6
CONTINUOUS
62
7
370
0
100
AcDbLine
10
330
20
61.5
11
330
21
112.5
0
ENDBLK
5
89
330
87
100
AcDbEntity
8
0
100
AcDbBlockEnd
0
BLOCK
5
8B
330
8A
100
AcDbEntity
8
0
100
AcDbBlockBegin
2
*D5
70
1
10
0
20
0
3
*D5
1

0
LINE
5
105
100
AcDbEntity
8
0.18
6
CONTINUOUS
62
7
370
0
100
AcDbLine
10
0
20
90
11
200
21
90
0
SOLID
5
106
100
AcDbEntity
8
0.18
6
CONTINUOUS
62
7
370
0
100
AcDbTrace
10
0
20
90
30
0
11
5
21
90.8325693155
31
0
12
5
22
89.1674306845
32
0
13
5
23
89.1674306845
33
0
0
SOLID
5
107
100
AcDbEntity
8
0.18
6
CONTINUOUS
62
7
370
0
100
AcDbTrace
10
200
20
90
30
0
11
195
21
89.1674306845
31
0
12
195
22
90.8325693155
32
0
13
195
23
90.8325693155
33
0
0
MTEXT
5
108
100
AcDbEntity
8
0.18
6
CONTINUOUS
62
7
370
0
100
AcDbMText
10
100
20
97
30
0
40
10
41
20
71
5
72
1
1
200
7
standard
210
0
220
0
230
1
50
0
73
2
44
1
0
LINE
5
109
100
AcDbEntity
8
0.18
6
CONTINUOUS
62
7
370
0
100
AcDbLine
10
1.22464679915e-16
20
2
11
1.53080849893e-16
21
92.5
0
LINE
5
10A
100
AcDbEntity
8
0.18
6
CONTINUOUS
62
7
370
0
100
AcDbLine
10
200
20
61.5
11
200
21
92.5
0
ENDBLK
5
8C
330
8A
100
AcDbEntity
8
0
100
AcDbBlockEnd
0
ENDSEC
0
SECTION
2
ENTITIES
0
HATCH
5
10B
100
AcDbEntity
8
0.18
6
ByLayer
62
256
370
-1
100
AcDbHatch
10
0
20
0
30
0
210
0
220
0
230
1
2
ansi31
70
0
71
0
91
1
92
0
93
8
72
2
10
655.5
20
43
40
0.5
50
180
51
270
73
0
72
1
10
655.5
20
43.5
11
684.5
21
43.5
72
2
10
684.5
20
43
40
0.5
50
270
51
360
73
0
72
1
10
685
20
43
11
685
21
41
72
2
10
684.5
20
41
40
0.5
50
360
51
90
73
0
72
1
10
684.5
20
40.5
11
655.5
21
40.5
72
2
10
655.5
20
41
40
0.5
50
90
51
180
73
0
72
1
10
655
20
41
11
655
21
43
97
0
75
0
76
1
52
0
41
1
77
0
78
0
98
0
0
HATCH
5
10C
100
AcDbEntity
8
0.18
6
ByLayer
62
256
370
-1
100
AcDbHatch
10
0
20
0
30
0
210
0
220
0
230
1
2
ansi31
70
0
71
0
91
1
92
0
93
8
72
2
10
525.5
20
173
40
0.5
50
90
51
180
73
1
72
1
10
525
20
173
11
525
21
171
72
2
10
525.5
20
171
40
0.5
50
180
51
270
73
1
72
1
10
525.5
20
170.5
11
554.5
21
170.5
72
2
10
554.5
20
171
40
0.5
50
270
51
0
73
1
72
1
10
555
20
171
11
555
21
173
72
2
10
554.5
20
173
40
0.5
50
0
51
90
73
1
72
1
10
554.5
20
173.5
11
525.5
21
173.5
97
0
75
0
76
1
52
0
41
1
77
0
78
0
98
0
0
HATCH
5
10D
100
AcDbEntity
8
0.18
6
ByLayer
62
256
370
-1
100
AcDbHatch
10
0
20
0
30
0
210
0
220
0
230
1
2
ansi31
70
0
71
0
91
1
92
0
93
8
72
2
10
655.5
20
173
40
0.5
50
180
51
270
73
0
72
1
10
655.5
20
173.5
11
684.5
21
173.5
72
2
10
684.5
20
173
40
0.5
50
270
51
360
73
0
72
1
10
685
20
173
11
685
21
171
72
2
10
684.5
20
171
40
0.5
50
360
51
90
73
0
72
1
10
684.5
20
170.5
11
655.5
21
170.5
72
2
10
655.5
20
171
40
0.5
50
90
51
180
73
0
72
1
10
655
20
171
11
655
21
173
97
0
75
0
76
1
52
0
41
1
77
0
78
0
98
0
0
HATCH
5
10E
100
AcDbEntity
8
0.18
6
ByLayer
62
256
370
-1
100
AcDbHatch
10
0
20
0
30
0
210
0
220
0
230
1
2
ansi31
70
0
71
0
91
1
92
0
93
8
72
2
10
785.5
20
173
40
0.5
50
180
51
270
73
0
72
1
10
785.5
20
173.5
11
814.5
21
173.5
72
2
10
814.5
20
173
40
0.5
50
270
51
360
73
0
72
1
10
815
20
173
11
815
21
171
72
2
10
814.5
20
171
40
0.5
50
360
51
90
73
0
72
1
10
814.5
20
170.5
11
785.5
21
170.5
72
2
10
785.5
20
171
40
0.5
50
90
51
180
73
0
72
1
10
785
20
171
11
785
21
173
97
0
75
0
76
1
52
0
41
1
77
0
78
0
98
0
0
HATCH
5
10F
100
AcDbEntity
8
0.18
6
ByLayer
62
256
370
-1
100
AcDbHatch
10
0
20
0
30
0
210
0
220
0
230
1
2
ansi31
70
0
71
0
91
1
92
0
93
8
72
2
10
785.5
20
203
40
0.5
50
180
51
270
73
0
72
1
10
785.5
20
203.5
11
814.5
21
203.5
72
2
10
814.5
20
203
40
0.5
50
270
51
360
73
0
72
1
10
815
20
203
11
815
21
201
72
2
10
814.5
20
201
40
0.5
50
360
51
90
73
0
72
1
10
814.5
20
200.5
11
785.5
21
200.5
72
2
10
785.5
20
201
40
0.5
50
90
51
180
73
0
72
1
10
785
20
201
11
785
21
203
97
0
75
0
76
1
52
0
41
1
77
0
78
0
98
0
0
HATCH
5
110
100
AcDbEntity
8
0.18
6
ByLayer
62
256
370
-1
100
AcDbHatch
10
0
20
0
30
0
210
0
220
0
230
1
2
ansi31
70
0
71
0
91
1
92
0
93
8
72
2
10
525.5
20
201
40
0.5
50
90
51
180
73
0
72
1
10
525
20
201
11
525
21
203
72
2
10
525.5
20
203
40
0.5
50
180
51
270
73
0
72
1
10
525.5
20
203.5
11
554.5
21
203.5
72
2
10
554.5
20
203
40
0.5
50
270
51
360
73
0
72
1
10
555
20
203
11
555
21
201
72
2
10
554.5
20
201
40
0.5
50
360
51
90
73
0
72
1
10
554.5
20
200.5
11
525.5
21
200.5
97
0
75
0
76
1
52
0
41
1
77
0
78
0
98
0
0
HATCH
5
111
100
AcDbEntity
8
0.18
6
ByLayer
62
256
370
-1
100
AcDbHatch
10
0
20
0
30
0
210
0
220
0
230
1
2
ansi31
70
0
71
0
91
1
92
0
93
8
72
2
10
655.5
20
203
40
0.5
50
180
51
270
73
0
72
1
10
655.5
20
203.5
11
684.5
21
203.5
72
2
10
684.5
20
203
40
0.5
50
270
51
360
73
0
72
1
10
685
20
203
11
685
21
201
72
2
10
684.5
20
201
40
0.5
50
360
51
90
73
0
72
1
10
684.5
20
200.5
11
655.5
21
200.5
72
2
10
655.5
20
201
40
0.5
50
90
51
180
73
0
72
1
10
655
20
201
11
655
21
203
97
0
75
0
76
1
52
0
41
1
77
0
78
0
98
0
0
HATCH
5
112
100
AcDbEntity
8
0.18
6
ByLayer
62
256
370
-1
100
AcDbHatch
10
0
20
0
30
0
210
0
220
0
230
1
2
ansi31
70
0
71
0
91
1
92
0
93
8
72
2
10
655.5
20
333
40
0.5
50
90
51
180
73
1
72
1
10
655
20
333
11
655
21
331
72
2
10
655.5
20
331
40
0.5
50
180
51
270
73
1
72
1
10
655.5
20
330.5
11
684.5
21
330.5
72
2
10
684.5
20
331
40
0.5
50
270
51
0
73
1
72
1
10
685
20
331
11
685
21
333
72
2
10
684.5
20
333
40
0.5
50
0
51
90
73
1
72
1
10
684.5
20
333.5
11
655.5
21
333.5
97
0
75
0
76
1
52
0
41
1
77
0
78
0
98
0
0
HATCH
5
113
100
AcDbEntity
8
0.18
6
ByLayer
62
256
370
-1
100
AcDbHatch
10
0
20
0
30
0
210
0
220
0
230
1
2
ansi31
70
0
71
0
91
1
92
0
93
8
72
2
10
55.5
20
-414
40
0.5
50
90
51
180
73
1
72
1
10
55
20
-414
11
55
21
-416
72
2
10
55.5
20
-416
40
0.5
50
180
51
270
73
1
72
1
10
55.5
20
-416.5
11
84.5
21
-416.5
72
2
10
84.5
20
-416
40
0.5
50
270
51
0
73
1
72
1
10
85
20
-416
11
85
21
-414
72
2
10
84.5
20
-414
40
0.5
50
0
51
90
73
1
72
1
10
84.5
20
-413.5
11
55.5
21
-413.5
97
0
75
0
76
1
52
0
41
1
77
0
78
0
98
0
0
HATCH
5
114
100
AcDbEntity
8
0.18
6
ByLayer
62
256
370
-1
100
AcDbHatch
10
0
20
0
30
0
210
0
220
0
230
1
2
ansi31
70
0
71
0
91
1
92
0
93
8
72
2
10
344.5
20
-414
40
0.5
50
0
51
90
73
1
72
1
10
344.5
20
-413.5
11
315.5
21
-413.5
72
2
10
315.5
20
-414
40
0.5
50
90
51
180
73
1
72
1
10
315
20
-414
11
315
21
-416
72
2
10
315.5
20
-416
40
0.5
50
180
51
270
73
1
72
1
10
315.5
20
-416.5
11
344.5
21
-416.5
72
2
10
344.5
20
-416
40
0.5
50
270
51
0
73
1
72
1
10
345
20
-416
11
345
21
-414
97
0
75
0
76
1
52
0
41
1
77
0
78
0
98
0
0
HATCH
5
115
100
AcDbEntity
8
0.18
6
ByLayer
62
256
370
-1
100
AcDbHatch
10
0
20
0
30
0
210
0
220
0
230
1
2
ansi31
70
0
71
0
91
1
92
0
93
8
72
2
10
315.5
20
-74
40
0.5
50
90
51
180
73
1
72
1
10
315
20
-74
11
315
21
-76
72
2
10
315.5
20
-76
40
0.5
50
180
51
270
73
1
72
1
10
315.5
20
-76.5
11
344.5
21
-76.5
72
2
10
344.5
20
-76
40
0.5
50
270
51
0
73
1
72
1
10
345
20
-76
11
345
21
-74
72
2
10
344.5
20
-74
40
0.5
50
0
51
90
73
1
72
1
10
344.5
20
-73.5
11
315.5
21
-73.5
97
0
75
0
76
1
52
0
41
1
77
0
78
0
98
0
0
HATCH
5
116
100
AcDbEntity
8
0.18
6
ByLayer
62
256
370
-1
100
AcDbHatch
10
0
20
0
30
0
210
0
220
0
230
1
2
ansi31
70
0
71
0
91
1
92
0
93
8
72
2
10
55.5
20
-74
40
0.5
50
180
51
270
73
0
72
1
10
55.5
20
-73.5
11
84.5
21
-73.5
72
2
10
84.5
20
-74
40
0.5
50
270
51
360
73
0
72
1
10
85
20
-74
11
85
21
-76
72
2
10
84.5
20
-76
40
0.5
50
360
51
90
73
0
72
1
10
84.5
20
-76.5
11
55.5
21
-76.5
72
2
10
55.5
20
-76
40
0.5
50
90
51
180
73
0
72
1
10
55
20
-76
11
55
21
-74
97
0
75
0
76
1
52
0
41
1
77
0
78
0
98
0
0
HATCH
5
117
100
AcDbEntity
8
0.18
6
ByLayer
62
256
370
-1
100
AcDbHatch
10
0
20
0
30
0
210
0
220
0
230
1
2
ansi31
70
0
71
0
91
1
92
0
93
8
72
2
10
55.5
20
59
40
0.5
50
180
51
270
73
0
72
1
10
55.5
20
59.5
11
84.5
21
59.5
72
2
10
84.5
20
59
40
0.5
50
270
51
360
73
0
72
1
10
85
20
59
11
85
21
57
72
2
10
84.5
20
57
40
0.5
50
360
51
90
73
0
72
1
10
84.5
20
56.5
11
55.5
21
56.5
72
2
10
55.5
20
57
40
0.5
50
90
51
180
73
0
72
1
10
55
20
57
11
55
21
59
97
0
75
0
76
1
52
0
41
1
77
0
78
0
98
0
0
HATCH
5
118
100
AcDbEntity
8
0.18
6
ByLayer
62
256
370
-1
100
AcDbHatch
10
0
20
0
30
0
210
0
220
0
230
1
2
ansi31
70
0
71
0
91
1
92
0
93
8
72
2
10
185.5
20
59
40
0.5
50
180
51
270
73
0
72
1
10
185.5
20
59.5
11
214.5
21
59.5
72
2
10
214.5
20
59
40
0.5
50
270
51
360
73
0
72
1
10
215
20
59
11
215
21
57
72
2
10
214.5
20
57
40
0.5
50
360
51
90
73
0
72
1
10
214.5
20
56.5
11
185.5
21
56.5
72
2
10
185.5
20
57
40
0.5
50
90
51
180
73
0
72
1
10
185
20
57
11
185
21
59
97
0
75
0
76
1
52
0
41
1
77
0
78
0
98
0
0
HATCH
5
119
100
AcDbEntity
8
0.18
6
ByLayer
62
256
370
-1
100
AcDbHatch
10
0
20
0
30
0
210
0
220
0
230
1
2
ansi31
70
0
71
0
91
1
92
0
93
8
72
2
10
315.5
20
57
40
0.5
50
180
51
270
73
1
72
1
10
315.5
20
56.5
11
344.5
21
56.5
72
2
10
344.5
20
57
40
0.5
50
270
51
0
73
1
72
1
10
345
20
57
11
345
21
59
72
2
10
344.5
20
59
40
0.5
50
0
51
90
73
1
72
1
10
344.5
20
59.5
11
315.5
21
59.5
72
2
10
315.5
20
59
40
0.5
50
90
51
180
73
1
72
1
10
315
20
59
11
315
21
57
97
0
75
0
76
1
52
0
41
1
77
0
78
0
98
0
0
HATCH
5
11A
100
AcDbEntity
8
0.18
6
ByLayer
62
256
370
-1
100
AcDbHatch
10
0
20
0
30
0
210
0
220
0
230
1
2
ansi31
70
0
71
0
91
1
92
0
93
8
72
2
10
315.5
20
343
40
0.5
50
180
51
270
73
0
72
1
10
315.5
20
343.5
11
344.5
21
343.5
72
2
10
344.5
20
343
40
0.5
50
270
51
360
73
0
72
1
10
345
20
343
11
345
21
341
72
2
10
344.5
20
341
40
0.5
50
360
51
90
73
0
72
1
10
344.5
20
340.5
11
315.5
21
340.5
72
2
10
315.5
20
341
40
0.5
50
90
51
180
73
0
72
1
10
315
20
341
11
315
21
343
97
0
75
0
76
1
52
0
41
1
77
0
78
0
98
0
0
HATCH
5
11B
100
AcDbEntity
8
0.18
6
ByLayer
62
256
370
-1
100
AcDbHatch
10
0
20
0
30
0
210
0
220
0
230
1
2
ansi31
70
0
71
0
91
1
92
0
93
8
72
2
10
185.5
20
343
40
0.5
50
180
51
270
73
0
72
1
10
185.5
20
343.5
11
214.5
21
343.5
72
2
10
214.5
20
343
40
0.5
50
270
51
360
73
0
72
1
10
215
20
343
11
215
21
341
72
2
10
214.5
20
341
40
0.5
50
360
51
90
73
0
72
1
10
214.5
20
340.5
11
185.5
21
340.5
72
2
10
185.5
20
341
40
0.5
50
90
51
180
73
0
72
1
10
185
20
341
11
185
21
343
97
0
75
0
76
1
52
0
41
1
77
0
78
0
98
0
0
HATCH
5
11C
100
AcDbEntity
8
0.18
6
ByLayer
62
256
370
-1
100
AcDbHatch
10
0
20
0
30
0
210
0
220
0
230
1
2
ansi31
70
0
71
0
91
1
92
0
93
8
72
2
10
55.5
20
343
40
0.5
50
180
51
270
73
0
72
1
10
55.5
20
343.5
11
84.5
21
343.5
72
2
10
84.5
20
343
40
0.5
50
270
51
360
73
0
72
1
10
85
20
343
11
85
21
341
72
2
10
84.5
20
341
40
0.5
50
360
51
90
73
0
72
1
10
84.5
20
340.5
11
55.5
21
340.5
72
2
10
55.5
20
341
40
0.5
50
90
51
180
73
0
72
1
10
55
20
341
11
55
21
343
97
0
75
0
76
1
52
0
41
1
77
0
78
0
98
0
0
LINE
5
11D
100
AcDbEntity
8
0.35
6
ByLayer
62
256
370
-1
100
AcDbLine
10
0
20
0
11
400
21
0
0
LINE
5
11E
100
AcDbEntity
8
0.35
6
ByLayer
62
256
370
-1
100
AcDbLine
10
0
20
0
11
2.44929359829e-14
21
400
0
LINE
5
11F
100
AcDbEntity
8
0.35
6
ByLayer
62
256
370
-1
100
AcDbLine
10
400
20
0
11
400
21
400
0
LINE
5
120
100
AcDbEntity
8
0.35
6
ByLayer
62
256
370
-1
100
AcDbLine
10
2.44929359829e-14
20
400
11
400
21
400
0
LINE
5
121
100
AcDbEntity
8
Hilf-BL
6
ByLayer
62
256
370
-1
100
AcDbLine
10
3.55147571753e-15
20
58
11
400
21
58
0
LINE
5
122
100
AcDbEntity
8
Hilf-BL
6
ByLayer
62
256
370
-1
100
AcDbLine
10
1.38385088304e-14
20
342
11
400
21
342
0
LINE
5
123
100
AcDbEntity
8
Hilf-BL
6
ByLayer
62
256
370
-1
100
AcDbLine
10
200
20
400
11
200
21
0
0
LINE
5
124
100
AcDbEntity
8
Hilf-BL
6
ByLayer
62
256
370
-1
100
AcDbLine
10
70
20
-1.71450551881e-14
11
70
21
400
0
LINE
5
125
100
AcDbEntity
8
Hilf-BL
6
ByLayer
62
256
370
-1
100
AcDbLine
10
330
20
8.57252759403e-15
11
330
21
400
0
LINE
5
126
100
AcDbEntity
8
Hilg-GE
6
ByLayer
62
256
370
-1
100
AcDbLine
10
3.64332422746e-15
20
59.5
11
400
21
59.5
0
LINE
5
127
100
AcDbEntity
8
Hilg-GE
6
ByLayer
62
256
370
-1
100
AcDbLine
10
3.27593018772e-15
20
56.5
11
400
21
56.5
0
LINE
5
128
100
AcDbEntity
8
Hilg-GE
6
ByLayer
62
256
370
-1
100
AcDbLine
10
345
20
4.89858719659e-15
11
345
21
400
0
LINE
5
129
100
AcDbEntity
8
Hilg-GE
6
ByLayer
62
256
370
-1
100
AcDbLine
10
315
20
1.04094977928e-14
11
315
21
400
0
LINE
5
12A
100
AcDbEntity
8
Hilg-GE
6
ByLayer
62
256
370
-1
100
AcDbLine
10
215
20
400
11
215
21
-3.67394039744e-15
0
LINE
5
12B
100
AcDbEntity
8
Hilg-GE
6
ByLayer
62
256
370
-1
100
AcDbLine
10
185
20
400
11
185
21
5.51091059616e-15
0
LINE
5
12C
100
AcDbEntity
8
Hilg-GE
6
ByLayer
62
256
370
-1
100
AcDbLine
10
85
20
-2.08189955855e-14
11
85
21
400
0
LINE
5
12D
100
AcDbEntity
8
Hilg-GE
6
ByLayer
62
256
370
-1
100
AcDbLine
10
55
20
-1.53080849893e-14
11
55
21
400
0
LINE
5
12E
100
AcDbEntity
8
Hilg-GE
6
ByLayer
62
256
370
-1
100
AcDbLine
10
1.39303573403e-14
20
343.5
11
400
21
343.5
0
LINE
5
12F
100
AcDbEntity
8
Hilg-GE
6
ByLayer
62
256
370
-1
100
AcDbLine
10
1.35629633006e-14
20
340.5
11
400
21
340.5
0
ARC
5
130
100
AcDbEntity
8
0.35
6
ByLayer
62
256
370
-1
100
AcDbCircle
10
55.5
20
343
40
0.5
100
AcDbArc
50
90
51
180
0
LINE
5
131
100
AcDbEntity
8
0.35
6
ByLayer
62
256
370
-1
100
AcDbLine
10
55
20
341
11
55
21
343
0
ARC
5
132
100
AcDbEntity
8
0.35
6
ByLayer
62
256
370
-1
100
AcDbCircle
10
55.5
20
341
40
0.5
100
AcDbArc
50
180
51
270
0
LINE
5
133
100
AcDbEntity
8
0.35
6
ByLayer
62
256
370
-1
100
AcDbLine
10
84.5
20
340.5
11
55.5
21
340.5
0
ARC
5
134
100
AcDbEntity
8
0.35
6
ByLayer
62
256
370
-1
100
AcDbCircle
10
84.5
20
341
40
0.5
100
AcDbArc
50
270
51
0
0
LINE
5
135
100
AcDbEntity
8
0.35
6
ByLayer
62
256
370
-1
100
AcDbLine
10
85
20
343
11
85
21
341
0
LINE
5
136
100
AcDbEntity
8
0.35
6
ByLayer
62
256
370
-1
100
AcDbLine
10
55.5
20
343.5
11
84.5
21
343.5
0
ARC
5
137
100
AcDbEntity
8
0.35
6
ByLayer
62
256
370
-1
100
AcDbCircle
10
84.5
20
343
40
0.5
100
AcDbArc
50
0
51
90
0
ARC
5
138
100
AcDbEntity
8
0.35
6
ByLayer
62
256
370
-1
100
AcDbCircle
10
185.5
20
343
40
0.5
100
AcDbArc
50
90
51
180
0
LINE
5
139
100
AcDbEntity
8
0.35
6
ByLayer
62
256
370
-1
100
AcDbLine
10
185
20
341
11
185
21
343
0
ARC
5
13A
100
AcDbEntity
8
0.35
6
ByLayer
62
256
370
-1
100
AcDbCircle
10
185.5
20
341
40
0.5
100
AcDbArc
50
180
51
270
0
LINE
5
13B
100
AcDbEntity
8
0.35
6
ByLayer
62
256
370
-1
100
AcDbLine
10
185.5
20
343.5
11
214.5
21
343.5
0
ARC
5
13C
100
AcDbEntity
8
0.35
6
ByLayer
62
256
370
-1
100
AcDbCircle
10
214.5
20
343
40
0.5
100
AcDbArc
50
0
51
90
0
LINE
5
13D
100
AcDbEntity
8
0.35
6
ByLayer
62
256
370
-1
100
AcDbLine
10
215
20
343
11
215
21
341
0
LINE
5
13E
100
AcDbEntity
8
0.35
6
ByLayer
62
256
370
-1
100
AcDbLine
10
214.5
20
340.5
11
185.5
21
340.5
0
ARC
5
13F
100
AcDbEntity
8
0.35
6
ByLayer
62
256
370
-1
100
AcDbCircle
10
214.5
20
341
40
0.5
100
AcDbArc
50
270
51
0
0
ARC
5
140
100
AcDbEntity
8
0.35
6
ByLayer
62
256
370
-1
100
AcDbCircle
10
315.5
20
343
40
0.5
100
AcDbArc
50
90
51
180
0
LINE
5
141
100
AcDbEntity
8
0.35
6
ByLayer
62
256
370
-1
100
AcDbLine
10
315
20
341
11
315
21
343
0
ARC
5
142
100
AcDbEntity
8
0.35
6
ByLayer
62
256
370
-1
100
AcDbCircle
10
315.5
20
341
40
0.5
100
AcDbArc
50
180
51
270
0
LINE
5
143
100
AcDbEntity
8
0.35
6
ByLayer
62
256
370
-1
100
AcDbLine
10
344.5
20
340.5
11
315.5
21
340.5
0
ARC
5
144
100
AcDbEntity
8
0.35
6
ByLayer
62
256
370
-1
100
AcDbCircle
10
344.5
20
341
40
0.5
100
AcDbArc
50
270
51
0
0
LINE
5
145
100
AcDbEntity
8
0.35
6
ByLayer
62
256
370
-1
100
AcDbLine
10
345
20
343
11
345
21
341
0
LINE
5
146
100
AcDbEntity
8
0.35
6
ByLayer
62
256
370
-1
100
AcDbLine
10
315.5
20
343.5
11
344.5
21
343.5
0
ARC
5
147
100
AcDbEntity
8
0.35
6
ByLayer
62
256
370
-1
100
AcDbCircle
10
344.5
20
343
40
0.5
100
AcDbArc
50
0
51
90
0
ARC
5
148
100
AcDbEntity
8
0.35
6
ByLayer
62
256
370
-1
100
AcDbCircle
10
55.5
20
59
40
0.5
100
AcDbArc
50
90
51
180
0
LINE
5
149
100
AcDbEntity
8
0.35
6
ByLayer
62
256
370
-1
100
AcDbLine
10
55
20
57
11
55
21
59
0
ARC
5
14A
100
AcDbEntity
8
0.35
6
ByLayer
62
256
370
-1
100
AcDbCircle
10
55.5
20
57
40
0.5
100
AcDbArc
50
180
51
270
0
LINE
5
14B
100
AcDbEntity
8
0.35
6
ByLayer
62
256
370
-1
100
AcDbLine
10
84.5
20
56.5
11
55.5
21
56.5
0
ARC
5
14C
100
AcDbEntity
8
0.35
6
ByLayer
62
256
370
-1
100
AcDbCircle
10
84.5
20
57
40
0.5
100
AcDbArc
50
270
51
0
0
LINE
5
14D
100
AcDbEntity
8
0.35
6
ByLayer
62
256
370
-1
100
AcDbLine
10
55.5
20
59.5
11
84.5
21
59.5
0
LINE
5
14E
100
AcDbEntity
8
0.35
6
ByLayer
62
256
370
-1
100
AcDbLine
10
85
20
59
11
85
21
57
0
ARC
5
14F
100
AcDbEntity
8
0.35
6
ByLayer
62
256
370
-1
100
AcDbCircle
10
84.5
20
59
40
0.5
100
AcDbArc
50
0
51
90
0
ARC
5
150
100
AcDbEntity
8
0.35
6
ByLayer
62
256
370
-1
100
AcDbCircle
10
185.5
20
59
40
0.5
100
AcDbArc
50
90
51
180
0
LINE
5
151
100
AcDbEntity
8
0.35
6
ByLayer
62
256
370
-1
100
AcDbLine
10
185
20
57
11
185
21
59
0
ARC
5
152
100
AcDbEntity
8
0.35
6
ByLayer
62
256
370
-1
100
AcDbCircle
10
185.5
20
57
40
0.5
100
AcDbArc
50
180
51
270
0
LINE
5
153
100
AcDbEntity
8
0.35
6
ByLayer
62
256
370
-1
100
AcDbLine
10
214.5
20
56.5
11
185.5
21
56.5
0
ARC
5
154
100
AcDbEntity
8
0.35
6
ByLayer
62
256
370
-1
100
AcDbCircle
10
214.5
20
57
40
0.5
100
AcDbArc
50
270
51
0
0
LINE
5
155
100
AcDbEntity
8
0.35
6
ByLayer
62
256
370
-1
100
AcDbLine
10
215
20
59
11
215
21
57
0
LINE
5
156
100
AcDbEntity
8
0.35
6
ByLayer
62
256
370
-1
100
AcDbLine
10
185.5
20
59.5
11
214.5
21
59.5
0
ARC
5
157
100
AcDbEntity
8
0.35
6
ByLayer
62
256
370
-1
100
AcDbCircle
10
214.5
20
59
40
0.5
100
AcDbArc
50
0
51
90
0
ARC
5
158
100
AcDbEntity
8
0.35
6
ByLayer
62
256
370
-1
100
AcDbCircle
10
315.5
20
57
40
0.5
100
AcDbArc
50
180
51
270
0
LINE
5
159
100
AcDbEntity
8
0.35
6
ByLayer
62
256
370
-1
100
AcDbLine
10
315
20
57
11
315
21
59
0
ARC
5
15A
100
AcDbEntity
8
0.35
6
ByLayer
62
256
370
-1
100
AcDbCircle
10
315.5
20
59
40
0.5
100
AcDbArc
50
90
51
180
0
LINE
5
15B
100
AcDbEntity
8
0.35
6
ByLayer
62
256
370
-1
100
AcDbLine
10
315.5
20
59.5
11
344.5
21
59.5
0
ARC
5
15C
100
AcDbEntity
8
0.35
6
ByLayer
62
256
370
-1
100
AcDbCircle
10
344.5
20
59
40
0.5
100
AcDbArc
50
0
51
90
0
LINE
5
15D
100
AcDbEntity
8
0.35
6
ByLayer
62
256
370
-1
100
AcDbLine
10
345
20
59
11
345
21
57
0
LINE
5
15E
100
AcDbEntity
8
0.35
6
ByLayer
62
256
370
-1
100
AcDbLine
10
344.5
20
56.5
11
315.5
21
56.5
0
ARC
5
15F
100
AcDbEntity
8
0.35
6
ByLayer
62
256
370
-1
100
AcDbCircle
10
344.5
20
57
40
0.5
100
AcDbArc
50
270
51
0
0
LINE
5
160
100
AcDbEntity
8
Hilf-BL
6
ByLayer
62
256
370
-1
100
AcDbLine
10
800
20
370
11
800
21
0
0
LINE
5
161
100
AcDbEntity
8
Hilf-BL
6
ByLayer
62
256
370
-1
100
AcDbLine
10
670
20
370
11
670
21
-1.71450551881e-14
0
LINE
5
162
100
AcDbEntity
8
Hilf-BL
6
ByLayer
62
256
370
-1
100
AcDbLine
10
930
20
370
11
930
21
2.57175827821e-14
0
LINE
5
163
100
AcDbEntity
8
Hilf-BL
6
ByLayer
62
256
370
-1
100
AcDbLine
10
600
20
40
11
1000
21
40
0
LINE
5
164
100
AcDbEntity
8
Hilf-BL
6
ByLayer
62
256
370
-1
100
AcDbLine
10
600
20
330
11
1000
21
330
0
LINE
5
165
100
AcDbEntity
8
Hilf-BL
6
ByLayer
62
256
370
-1
100
AcDbLine
10
600
20
170
11
1000
21
170
0
LINE
5
166
100
AcDbEntity
8
Hilf-BL
6
ByLayer
62
256
370
-1
100
AcDbLine
10
600
20
200
11
1000
21
200
0
LINE
5
167
100
AcDbEntity
8
Hilg-GE
6
ByLayer
62
256
370
-1
100
AcDbLine
10
600
20
41.5
11
1000
21
41.5
0
LINE
5
168
100
AcDbEntity
8
Hilg-GE
6
ByLayer
62
256
370
-1
100
AcDbLine
10
600
20
38.5
11
1000
21
38.5
0
LINE
5
169
100
AcDbEntity
8
Hilg-GE
6
ByLayer
62
256
370
-1
100
AcDbLine
10
600
20
171.5
11
1000
21
171.5
0
LINE
5
16A
100
AcDbEntity
8
Hilg-GE
6
ByLayer
62
256
370
-1
100
AcDbLine
10
600
20
168.5
11
1000
21
168.5
0
LINE
5
16B
100
AcDbEntity
8
Hilg-GE
6
ByLayer
62
256
370
-1
100
AcDbLine
10
600
20
198.5
11
1000
21
198.5
0
LINE
5
16C
100
AcDbEntity
8
Hilg-GE
6
ByLayer
62
256
370
-1
100
AcDbLine
10
600
20
201.5
11
1000
21
201.5
0
LINE
5
16D
100
AcDbEntity
8
Hilg-GE
6
ByLayer
62
256
370
-1
100
AcDbLine
10
600
20
328.5
11
1000
21
328.5
0
LINE
5
16E
100
AcDbEntity
8
Hilg-GE
6
ByLayer
62
256
370
-1
100
AcDbLine
10
600
20
331.5
11
1000
21
331.5
0
LINE
5
16F
100
AcDbEntity
8
Hilg-GE
6
ByLayer
62
256
370
-1
100
AcDbLine
10
655
20
370
11
655
21
-1.16341445919e-14
0
LINE
5
170
100
AcDbEntity
8
Hilg-GE
6
ByLayer
62
256
370
-1
100
AcDbLine
10
685
20
370
11
685
21
-2.08189955855e-14
0
LINE
5
171
100
AcDbEntity
8
Hilg-GE
6
ByLayer
62
256
370
-1
100
AcDbLine
10
785
20
370
11
785
21
5.51091059616e-15
0
LINE
5
172
100
AcDbEntity
8
Hilg-GE
6
ByLayer
62
256
370
-1
100
AcDbLine
10
815
20
370
11
815
21
-3.67394039744e-15
0
LINE
5
173
100
AcDbEntity
8
Hilg-GE
6
ByLayer
62
256
370
-1
100
AcDbLine
10
915
20
370
11
915
21
3.12284933783e-14
0
LINE
5
174
100
AcDbEntity
8
Hilg-GE
6
ByLayer
62
256
370
-1
100
AcDbLine
10
945
20
370
11
945
21
2.20436423847e-14
0
LINE
5
175
100
AcDbEntity
8
Hilf-BL
6
ByLayer
62
256
370
-1
100
AcDbLine
10
70
20
-200
11
70
21
-570
0
LINE
5
176
100
AcDbEntity
8
Hilf-BL
6
ByLayer
62
256
370
-1
100
AcDbLine
10
330
20
-200
11
330
21
-570
0
LINE
5
177
100
AcDbEntity
8
Hilf-BL
6
ByLayer
62
256
370
-1
100
AcDbLine
10
-6.70494122533e-14
20
-555
11
400
21
-555
0
LINE
5
178
100
AcDbEntity
8
Hilf-BL
6
ByLayer
62
256
370
-1
100
AcDbLine
10
-2.75545529808e-15
20
-215
11
400
21
-215
0
LINE
5
179
100
AcDbEntity
8
Hilg-GE
6
ByLayer
62
256
370
-1
100
AcDbLine
10
-2.66360678815e-15
20
-213.5
11
400
21
-213.5
0
LINE
5
17A
100
AcDbEntity
8
Hilg-GE
6
ByLayer
62
256
370
-1
100
AcDbLine
10
-3.03100082789e-15
20
-216.5
11
400
21
-216.5
0
LINE
5
17B
100
AcDbEntity
8
Hilg-GE
6
ByLayer
62
256
370
-1
100
AcDbLine
10
-6.69575637434e-14
20
-553.5
11
400
21
-553.5
0
LINE
5
17C
100
AcDbEntity
8
Hilg-GE
6
ByLayer
62
256
370
-1
100
AcDbLine
10
-6.73249577831e-14
20
-556.5
11
400
21
-556.5
0
LINE
5
17D
100
AcDbEntity
8
Hilg-GE
6
ByLayer
62
256
370
-1
100
AcDbLine
10
55
20
-200
11
55
21
-570
0
LINE
5
17E
100
AcDbEntity
8
Hilg-GE
6
ByLayer
62
256
370
-1
100
AcDbLine
10
85
20
-200
11
85
21
-570
0
LINE
5
17F
100
AcDbEntity
8
Hilg-GE
6
ByLayer
62
256
370
-1
100
AcDbLine
10
315
20
-200
11
315
21
-570
0
LINE
5
180
100
AcDbEntity
8
Hilg-GE
6
ByLayer
62
256
370
-1
100
AcDbLine
10
345
20
-200
11
345
21
-570
0
DIMENSION
5
181
100
AcDbEntity
8
0.18
6
ByLayer
62
256
370
-1
100
AcDbDimension
2
*D1
10
400
20
-30
30
0
11
200
21
-23
31
0
70
33
71
5
3
Standard
53
0
210
0
220
0
230
1
100
AcDbAlignedDimension
13
0
23
0
33
0
14
400
24
0
34
0
0
DIMENSION
5
182
100
AcDbEntity
8
0.18
6
ByLayer
62
256
370
-1
100
AcDbDimension
2
*D2
10
-30
20
7.34788079488e-15
30
0
11
-37
21
200
31
0
70
33
71
5
3
Standard
53
0
210
0
220
0
230
1
100
AcDbAlignedDimension
13
2.44929359829e-14
23
400
33
0
14
0
24
0
34
0
0
LINE
5
183
100
AcDbEntity
8
0.13-strichpunkt
6
ByLayer
62
256
370
-1
100
AcDbLine
10
85
20
58
11
55
21
58
0
LINE
5
184
100
AcDbEntity
8
0.13-strichpunkt
6
ByLayer
62
256
370
-1
100
AcDbLine
10
70
20
59.5
11
70
21
56.5
0
DIMENSION
5
185
100
AcDbEntity
8
0.18
6
ByLayer
62
256
370
-1
100
AcDbDimension
2
*D3
10
40
20
58
30
0
11
33
21
29
31
0
70
32
71
5
3
Standard
53
0
210
0
220
0
230
1
100
AcDbAlignedDimension
13
0
23
0
33
0
14
55
24
58
34
0
50
90
100
AcDbRotatedDimension
0
DIMENSION
5
186
100
AcDbEntity
8
0.18
6
ByLayer
62
256
370
-1
100
AcDbDimension
2
*D4
10
70
20
70
30
0
11
35
21
77
31
0
70
32
71
5
3
Standard
53
0
210
0
220
0
230
1
100
AcDbAlignedDimension
13
0
23
0
33
0
14
70
24
56.5
34
0
100
AcDbRotatedDimension
0
DIMENSION
5
187
100
AcDbEntity
8
0.18
6
ByLayer
62
256
370
-1
100
AcDbDimension
2
*D5
10
200
20
90
30
0
11
100
21
97
31
0
70
32
71
5
3
Standard
53
0
210
0
220
0
230
1
100
AcDbAlignedDimension
13
0
23
0
33
0
14
200
24
59.5
34
0
100
AcDbRotatedDimension
0
DIMENSION
5
188
100
AcDbEntity
8
0.18
6
ByLayer
62
256
370
-1
100
AcDbDimension
2
*D6
10
330
20
110
30
0
11
165
21
117
31
0
70
32
71
5
3
Standard
53
0
210
0
220
0
230
1
100
AcDbAlignedDimension
13
0
23
0
33
0
14
330
24
59.5
34
0
100
AcDbRotatedDimension
0
DIMENSION
5
189
100
AcDbEntity
8
0.18
6
ByLayer
62
256
370
-1
100
AcDbDimension
2
*D7
10
215
20
30
30
0
11
200
21
37
31
0
70
32
71
5
3
Standard
53
0
210
0
220
0
230
1
100
AcDbAlignedDimension
13
185
23
58
33
0
14
215
24
58
34
0
100
AcDbRotatedDimension
0
DIMENSION
5
18A
100
AcDbEntity
8
0.18
6
ByLayer
62
256
370
-1
100
AcDbDimension
2
*D8
10
215
20
90
30
0
11
207.5
21
97
31
0
70
32
71
5
3
Standard
53
0
210
0
220
0
230
1
100
AcDbAlignedDimension
13
200
23
64
33
0
14
215
24
58
34
0
100
AcDbRotatedDimension
0
LINE
5
18B
100
AcDbEntity
8
Hilf-BL
6
ByLayer
62
256
370
-1
100
AcDbLine
10
629
20
-300
11
629
21
-307.5
0
LINE
5
18C
100
AcDbEntity
8
Hilf-BL
6
ByLayer
62
256
370
-1
100
AcDbLine
10
771
20
-300
11
771
21
-307.5
0
LINE
5
18D
100
AcDbEntity
8
Hilf-BL
6
ByLayer
62
256
370
-1
100
AcDbLine
10
629
20
-492.5
11
629
21
-500
0
LINE
5
18E
100
AcDbEntity
8
Hilf-BL
6
ByLayer
62
256
370
-1
100
AcDbLine
10
771
20
-492.5
11
771
21
-500
0
LINE
5
18F
100
AcDbEntity
8
Hilf-BL
6
ByLayer
62
256
370
-1
100
AcDbLine
10
600
20
-472.5
11
800
21
-472.5
0
LINE
5
190
100
AcDbEntity
8
Hilf-BL
6
ByLayer
62
256
370
-1
100
AcDbLine
10
600
20
-327.5
11
800
21
-327.5
0
LINE
5
191
100
AcDbEntity
8
Hilf-BL
6
ByLayer
62
256
370
-1
100
AcDbLine
10
600
20
-392.5
11
800
21
-392.5
0
LINE
5
192
100
AcDbEntity
8
Hilf-BL
6
ByLayer
62
256
370
-1
100
AcDbLine
10
600
20
-407.5
11
800
21
-407.5
0
LINE
5
193
100
AcDbEntity
8
Hilg-GE
6
ByLayer
62
256
370
-1
100
AcDbLine
10
600
20
-295
11
800
21
-295
0
LINE
5
194
100
AcDbEntity
8
Hilg-GE
6
ByLayer
62
256
370
-1
100
AcDbLine
10
600
20
-312.5
11
800
21
-312.5
0
LINE
5
195
100
AcDbEntity
8
Hilg-GE
6
ByLayer
62
256
370
-1
100
AcDbLine
10
595
20
-307.5
11
595
21
-492.5
0
LINE
5
196
100
AcDbEntity
8
Hilg-GE
6
ByLayer
62
256
370
-1
100
AcDbLine
10
612.5
20
-307.5
11
612.5
21
-492.5
0
LINE
5
197
100
AcDbEntity
8
Hilg-GE
6
ByLayer
62
256
370
-1
100
AcDbLine
10
787.5
20
-307.5
11
787.5
21
-492.5
0
LINE
5
198
100
AcDbEntity
8
Hilg-GE
6
ByLayer
62
256
370
-1
100
AcDbLine
10
805
20
-307.5
11
805
21
-492.5
0
LINE
5
199
100
AcDbEntity
8
Hilg-GE
6
ByLayer
62
256
370
-1
100
AcDbLine
10
600
20
-505
11
800
21
-505
0
LINE
5
19A
100
AcDbEntity
8
Hilg-GE
6
ByLayer
62
256
370
-1
100
AcDbLine
10
600
20
-487.5
11
800
21
-487.5
0
LINE
5
19B
100
AcDbEntity
8
Hilf-BL
6
ByLayer
62
256
370
-1
100
AcDbLine
10
1016
20
-300
11
1016
21
-307.5
0
LINE
5
19C
100
AcDbEntity
8
Hilf-BL
6
ByLayer
62
256
370
-1
100
AcDbLine
10
874
20
-492.5
11
874
21
-500
0
LINE
5
19D
100
AcDbEntity
8
Hilf-BL
6
ByLayer
62
256
370
-1
100
AcDbLine
10
845
20
-472.5
11
1045
21
-472.5
0
LINE
5
19E
100
AcDbEntity
8
Hilf-BL
6
ByLayer
62
256
370
-1
100
AcDbLine
10
845
20
-327.5
11
1045
21
-327.5
0
LINE
5
19F
100
AcDbEntity
8
Hilf-BL
6
ByLayer
62
256
370
-1
100
AcDbLine
10
845
20
-392.5
11
1045
21
-392.5
0
LINE
5
1A0
100
AcDbEntity
8
Hilf-BL
6
ByLayer
62
256
370
-1
100
AcDbLine
10
845
20
-407.5
11
1045
21
-407.5
0
LINE
5
1A1
100
AcDbEntity
8
Hilg-GE
6
ByLayer
62
256
370
-1
100
AcDbLine
10
845
20
-295
11
1045
21
-295
0
LINE
5
1A2
100
AcDbEntity
8
Hilg-GE
6
ByLayer
62
256
370
-1
100
AcDbLine
10
845
20
-312.5
11
1045
21
-312.5
0
LINE
5
1A3
100
AcDbEntity
8
Hilg-GE
6
ByLayer
62
256
370
-1
100
AcDbLine
10
840
20
-307.5
11
840
21
-492.5
0
LINE
5
1A4
100
AcDbEntity
8
Hilg-GE
6
ByLayer
62
256
370
-1
100
AcDbLine
10
857.5
20
-307.5
11
857.5
21
-492.5
0
LINE
5
1A5
100
AcDbEntity
8
Hilg-GE
6
ByLayer
62
256
370
-1
100
AcDbLine
10
1032.5
20
-307.5
11
1032.5
21
-492.5
0
LINE
5
1A6
100
AcDbEntity
8
Hilg-GE
6
ByLayer
62
256
370
-1
100
AcDbLine
10
1050
20
-307.5
11
1050
21
-492.5
0
LINE
5
1A7
100
AcDbEntity
8
Hilg-GE
6
ByLayer
62
256
370
-1
100
AcDbLine
10
845
20
-505
11
1045
21
-505
0
LINE
5
1A8
100
AcDbEntity
8
Hilg-GE
6
ByLayer
62
256
370
-1
100
AcDbLine
10
845
20
-487.5
11
1045
21
-487.5
0
LINE
5
1A9
100
AcDbEntity
8
Hilf-BL
6
ByLayer
62
256
370
-1
100
AcDbLine
10
874
20
-300
11
874
21
-307.5
0
LINE
5
1AA
100
AcDbEntity
8
Hilf-BL
6
ByLayer
62
256
370
-1
100
AcDbLine
10
1016
20
-492.5
11
1016
21
-500
0
LINE
5
1AB
100
AcDbEntity
8
Hilg-GE
6
ByLayer
62
256
370
-1
100
AcDbLine
10
845
20
-400
11
1050
21
-400
0
LINE
5
1AC
100
AcDbEntity
8
Hilg-GE
6
ByLayer
62
256
370
-1
100
AcDbLine
10
845
20
-396.25
11
1050
21
-396.25
0
LINE
5
1AD
100
AcDbEntity
8
Hilg-GE
6
ByLayer
62
256
370
-1
100
AcDbLine
10
845
20
-403.75
11
1050
21
-403.75
0
LINE
5
1AE
100
AcDbEntity
8
Hilf-BL
6
ByLayer
62
256
370
-1
100
AcDbLine
10
860
20
-307.5
11
860
21
-492.5
0
LINE
5
1AF
100
AcDbEntity
8
Hilf-BL
6
ByLayer
62
256
370
-1
100
AcDbLine
10
1030
20
-307.5
11
1030
21
-492.5
0
LINE
5
1B0
100
AcDbEntity
8
0.35
6
ByLayer
62
256
370
-1
100
AcDbLine
10
0
20
-60
11
400
21
-60
0
LINE
5
1B1
100
AcDbEntity
8
0.35
6
ByLayer
62
256
370
-1
100
AcDbLine
10
-6.79678973527e-14
20
-430
11
400
21
-430
0
LINE
5
1B2
100
AcDbEntity
8
0.35
6
ByLayer
62
256
370
-1
100
AcDbLine
10
0
20
-60
11
-6.79678973527e-14
21
-430
0
LINE
5
1B3
100
AcDbEntity
8
0.35
6
ByLayer
62
256
370
-1
100
AcDbLine
10
400
20
-60
11
400
21
-430
0
ARC
5
1B4
100
AcDbEntity
8
0.35
6
ByLayer
62
256
370
-1
100
AcDbCircle
10
55.5
20
-74
40
0.5
100
AcDbArc
50
90
51
180
0
LINE
5
1B5
100
AcDbEntity
8
0.35
6
ByLayer
62
256
370
-1
100
AcDbLine
10
55
20
-76
11
55
21
-74
0
ARC
5
1B6
100
AcDbEntity
8
0.35
6
ByLayer
62
256
370
-1
100
AcDbCircle
10
55.5
20
-76
40
0.5
100
AcDbArc
50
180
51
270
0
LINE
5
1B7
100
AcDbEntity
8
0.35
6
ByLayer
62
256
370
-1
100
AcDbLine
10
55.5
20
-73.5
11
84.5
21
-73.5
0
ARC
5
1B8
100
AcDbEntity
8
0.35
6
ByLayer
62
256
370
-1
100
AcDbCircle
10
84.5
20
-74
40
0.5
100
AcDbArc
50
0
51
90
0
LINE
5
1B9
100
AcDbEntity
8
0.35
6
ByLayer
62
256
370
-1
100
AcDbLine
10
85
20
-74
11
85
21
-76
0
LINE
5
1BA
100
AcDbEntity
8
0.35
6
ByLayer
62
256
370
-1
100
AcDbLine
10
84.5
20
-76.5
11
55.5
21
-76.5
0
ARC
5
1BB
100
AcDbEntity
8
0.35
6
ByLayer
62
256
370
-1
100
AcDbCircle
10
84.5
20
-76
40
0.5
100
AcDbArc
50
270
51
0
0
ARC
5
1BC
100
AcDbEntity
8
0.35
6
ByLayer
62
256
370
-1
100
AcDbCircle
10
315.5
20
-74
40
0.5
100
AcDbArc
50
90
51
180
0
LINE
5
1BD
100
AcDbEntity
8
0.35
6
ByLayer
62
256
370
-1
100
AcDbLine
10
315.5
20
-73.5
11
344.5
21
-73.5
0
ARC
5
1BE
100
AcDbEntity
8
0.35
6
ByLayer
62
256
370
-1
100
AcDbCircle
10
344.5
20
-74
40
0.5
100
AcDbArc
50
0
51
90
0
LINE
5
1BF
100
AcDbEntity
8
0.35
6
ByLayer
62
256
370
-1
100
AcDbLine
10
345
20
-74
11
345
21
-76
0
ARC
5
1C0
100
AcDbEntity
8
0.35
6
ByLayer
62
256
370
-1
100
AcDbCircle
10
344.5
20
-76
40
0.5
100
AcDbArc
50
270
51
0
0
LINE
5
1C1
100
AcDbEntity
8
0.35
6
ByLayer
62
256
370
-1
100
AcDbLine
10
344.5
20
-76.5
11
315.5
21
-76.5
0
LINE
5
1C2
100
AcDbEntity
8
0.35
6
ByLayer
62
256
370
-1
100
AcDbLine
10
315
20
-76
11
315
21
-74
0
ARC
5
1C3
100
AcDbEntity
8
0.35
6
ByLayer
62
256
370
-1
100
AcDbCircle
10
315.5
20
-76
40
0.5
100
AcDbArc
50
180
51
270
0
ARC
5
1C4
100
AcDbEntity
8
0.35
6
ByLayer
62
256
370
-1
100
AcDbCircle
10
344.5
20
-414
40
0.5
100
AcDbArc
50
0
51
90
0
LINE
5
1C5
100
AcDbEntity
8
0.35
6
ByLayer
62
256
370
-1
100
AcDbLine
10
345
20
-414
11
345
21
-416
0
ARC
5
1C6
100
AcDbEntity
8
0.35
6
ByLayer
62
256
370
-1
100
AcDbCircle
10
344.5
20
-416
40
0.5
100
AcDbArc
50
270
51
0
0
LINE
5
1C7
100
AcDbEntity
8
0.35
6
ByLayer
62
256
370
-1
100
AcDbLine
10
344.5
20
-416.5
11
315.5
21
-416.5
0
ARC
5
1C8
100
AcDbEntity
8
0.35
6
ByLayer
62
256
370
-1
100
AcDbCircle
10
315.5
20
-416
40
0.5
100
AcDbArc
50
180
51
270
0
LINE
5
1C9
100
AcDbEntity
8
0.35
6
ByLayer
62
256
370
-1
100
AcDbLine
10
315
20
-416
11
315
21
-414
0
LINE
5
1CA
100
AcDbEntity
8
0.35
6
ByLayer
62
256
370
-1
100
AcDbLine
10
315.5
20
-413.5
11
344.5
21
-413.5
0
ARC
5
1CB
100
AcDbEntity
8
0.35
6
ByLayer
62
256
370
-1
100
AcDbCircle
10
315.5
20
-414
40
0.5
100
AcDbArc
50
90
51
180
0
ARC
5
1CC
100
AcDbEntity
8
0.35
6
ByLayer
62
256
370
-1
100
AcDbCircle
10
55.5
20
-414
40
0.5
100
AcDbArc
50
90
51
180
0
LINE
5
1CD
100
AcDbEntity
8
0.35
6
ByLayer
62
256
370
-1
100
AcDbLine
10
55
20
-416
11
55
21
-414
0
ARC
5
1CE
100
AcDbEntity
8
0.35
6
ByLayer
62
256
370
-1
100
AcDbCircle
10
55.5
20
-416
40
0.5
100
AcDbArc
50
180
51
270
0
LINE
5
1CF
100
AcDbEntity
8
0.35
6
ByLayer
62
256
370
-1
100
AcDbLine
10
55.5
20
-413.5
11
84.5
21
-413.5
0
ARC
5
1D0
100
AcDbEntity
8
0.35
6
ByLayer
62
256
370
-1
100
AcDbCircle
10
84.5
20
-414
40
0.5
100
AcDbArc
50
0
51
90
0
LINE
5
1D1
100
AcDbEntity
8
0.35
6
ByLayer
62
256
370
-1
100
AcDbLine
10
85
20
-414
11
85
21
-416
0
LINE
5
1D2
100
AcDbEntity
8
0.35
6
ByLayer
62
256
370
-1
100
AcDbLine
10
84.5
20
-416.5
11
55.5
21
-416.5
0
ARC
5
1D3
100
AcDbEntity
8
0.35
6
ByLayer
62
256
370
-1
100
AcDbCircle
10
84.5
20
-416
40
0.5
100
AcDbArc
50
270
51
0
0
DIMENSION
5
1D4
100
AcDbEntity
8
0.18
6
ByLayer
62
256
370
-1
100
AcDbDimension
2
*D9
10
400
20
-460
30
0
11
200
21
-453
31
0
70
33
71
5
3
Standard
53
0
210
0
220
0
230
1
100
AcDbAlignedDimension
13
-6.79678973527e-14
23
-430
33
0
14
400
24
-430
34
0
0
DIMENSION
5
1D5
100
AcDbEntity
8
0.18
6
ByLayer
62
256
370
-1
100
AcDbDimension
2
*D10
10
-30
20
-430
30
0
11
-37
21
-245
31
0
70
33
71
5
3
Standard
53
0
210
0
220
0
230
1
100
AcDbAlignedDimension
13
0
23
-60
33
0
14
0
24
-430
34
0
0
LINE
5
1D6
100
AcDbEntity
8
0.13-strichpunkt
6
ByLayer
62
256
370
-1
100
AcDbLine
10
85
20
-415
11
55
21
-415
0
DIMENSION
5
1D7
100
AcDbEntity
8
0.18
6
ByLayer
62
256
370
-1
100
AcDbDimension
2
*D11
10
48
20
-430
30
0
11
41
21
-422.5
31
0
70
32
71
5
3
Standard
53
0
210
0
220
0
230
1
100
AcDbAlignedDimension
13
55
23
-415
33
0
14
-6.79678973527e-14
24
-430
34
0
50
90
100
AcDbRotatedDimension
0
DIMENSION
5
1D8
100
AcDbEntity
8
0.18
6
ByLayer
62
256
370
-1
100
AcDbDimension
2
*D12
10
-6.6130927154e-14
20
-400
30
0
11
35
21
-393
31
0
70
32
71
5
3
Standard
53
0
210
0
220
0
230
1
100
AcDbAlignedDimension
13
70
23
-413.5
33
0
14
-6.79678973527e-14
24
-430
34
0
100
AcDbRotatedDimension
0
LINE
5
1D9
100
AcDbEntity
8
0.25
6
ByLayer
62
256
370
-1
100
AcDbLine
10
445
20
-230
11
645
21
-230
0
LINE
5
1DA
100
AcDbEntity
8
0.25
6
ByLayer
62
256
370
-1
100
AcDbLine
10
445
20
-237.5
11
645
21
-237.5
0
LINE
5
1DB
100
AcDbEntity
8
0.25
6
ByLayer
62
256
370
-1
100
AcDbLine
10
445
20
-422.5
11
645
21
-422.5
0
LINE
5
1DC
100
AcDbEntity
8
0.25
6
ByLayer
62
256
370
-1
100
AcDbLine
10
445
20
-430
11
645
21
-430
0
LINE
5
1DD
100
AcDbEntity
8
0.25
6
ByLayer
62
256
370
-1
100
AcDbLine
10
445
20
-230
11
445
21
-237.5
0
LINE
5
1DE
100
AcDbEntity
8
0.25
6
ByLayer
62
256
370
-1
100
AcDbLine
10
445
20
-422.5
11
445
21
-430
0
LINE
5
1DF
100
AcDbEntity
8
0.25
6
ByLayer
62
256
370
-1
100
AcDbLine
10
645
20
-422.5
11
645
21
-430
0
LINE
5
1E0
100
AcDbEntity
8
0.25
6
ByLayer
62
256
370
-1
100
AcDbLine
10
445
20
-237.5
11
445
21
-422.5
0
LINE
5
1E1
100
AcDbEntity
8
0.25
6
ByLayer
62
256
370
-1
100
AcDbLine
10
645
20
-230
11
645
21
-237.5
0
LINE
5
1E2
100
AcDbEntity
8
0.25
6
ByLayer
62
256
370
-1
100
AcDbLine
10
645
20
-237.5
11
645
21
-422.5
0
LINE
5
1E3
100
AcDbEntity
8
0.25
6
ByLayer
62
256
370
-1
100
AcDbLine
10
637.5
20
-237.5
11
637.5
21
-422.5
0
LINE
5
1E4
100
AcDbEntity
8
0.25
6
ByLayer
62
256
370
-1
100
AcDbLine
10
452.5
20
-237.5
11
452.5
21
-422.5
0
LINE
5
1E5
100
AcDbEntity
8
Spanngurt
6
ByLayer
62
256
370
-1
100
AcDbLine
10
474
20
-242.5
11
474
21
-225
0
LINE
5
1E6
100
AcDbEntity
8
Spanngurt
6
ByLayer
62
256
370
-1
100
AcDbLine
10
474
20
-225
11
440
21
-225
0
LINE
5
1E7
100
AcDbEntity
8
Spanngurt
6
ByLayer
62
256
370
-1
100
AcDbLine
10
440
20
-225
11
440
21
-322.5
0
LINE
5
1E8
100
AcDbEntity
8
0.25
6
ByLayer
62
256
370
-1
100
AcDbLine
10
452.5
20
-326.25
11
637.5
21
-326.25
0
LINE
5
1E9
100
AcDbEntity
8
0.25
6
ByLayer
62
256
370
-1
100
AcDbLine
10
637.5
20
-326.25
11
637.5
21
-333.75
0
LINE
5
1EA
100
AcDbEntity
8
0.25
6
ByLayer
62
256
370
-1
100
AcDbLine
10
637.5
20
-333.75
11
452.5
21
-333.75
0
LINE
5
1EB
100
AcDbEntity
8
0.25
6
ByLayer
62
256
370
-1
100
AcDbLine
10
452.5
20
-333.75
11
452.5
21
-326.25
0
LINE
5
1EC
100
AcDbEntity
8
Spanngurt
6
ByLayer
62
256
370
-1
100
AcDbLine
10
440
20
-322.5
11
452.5
21
-322.5
0
LINE
5
1ED
100
AcDbEntity
8
Spanngurt
6
ByLayer
62
256
370
-1
100
AcDbLine
10
452.5
20
-322.5
11
460
21
-326.25
0
LINE
5
1EE
100
AcDbEntity
8
Spanngurt
6
ByLayer
62
256
370
-1
100
AcDbLine
10
460
20
-326.25
11
460
21
-333.75
0
LINE
5
1EF
100
AcDbEntity
8
Spanngurt
6
ByLayer
62
256
370
-1
100
AcDbLine
10
460
20
-333.75
11
452.5
21
-337.5
0
LINE
5
1F0
100
AcDbEntity
8
Spanngurt
6
ByLayer
62
256
370
-1
100
AcDbLine
10
452.5
20
-337.5
11
440
21
-337.5
0
LINE
5
1F1
100
AcDbEntity
8
Spanngurt
6
ByLayer
62
256
370
-1
100
AcDbLine
10
440
20
-337.5
11
440
21
-435
0
LINE
5
1F2
100
AcDbEntity
8
Spanngurt
6
ByLayer
62
256
370
-1
100
AcDbLine
10
440
20
-435
11
474
21
-435
0
LINE
5
1F3
100
AcDbEntity
8
Spanngurt
6
ByLayer
62
256
370
-1
100
AcDbLine
10
474
20
-435
11
473.9
21
-417.5
0
LINE
5
1F4
100
AcDbEntity
8
Spanngurt
6
ByLayer
62
256
370
-1
100
AcDbLine
10
473.9
20
-417.5
11
616
21
-417.5
0
LINE
5
1F5
100
AcDbEntity
8
Spanngurt
6
ByLayer
62
256
370
-1
100
AcDbLine
10
616
20
-417.5
11
616
21
-435
0
LINE
5
1F6
100
AcDbEntity
8
Spanngurt
6
ByLayer
62
256
370
-1
100
AcDbLine
10
616
20
-435
11
650
21
-435
0
LINE
5
1F7
100
AcDbEntity
8
Spanngurt
6
ByLayer
62
256
370
-1
100
AcDbLine
10
650
20
-435
11
650
21
-337.5
0
LINE
5
1F8
100
AcDbEntity
8
Spanngurt
6
ByLayer
62
256
370
-1
100
AcDbLine
10
650
20
-337.5
11
637.5
21
-337.5
0
LINE
5
1F9
100
AcDbEntity
8
Spanngurt
6
ByLayer
62
256
370
-1
100
AcDbLine
10
637.5
20
-337.5
11
630
21
-333.75
0
LINE
5
1FA
100
AcDbEntity
8
Spanngurt
6
ByLayer
62
256
370
-1
100
AcDbLine
10
630
20
-333.75
11
630
21
-326.25
0
LINE
5
1FB
100
AcDbEntity
8
Spanngurt
6
ByLayer
62
256
370
-1
100
AcDbLine
10
630
20
-326.25
11
637.5
21
-322.5
0
LINE
5
1FC
100
AcDbEntity
8
Spanngurt
6
ByLayer
62
256
370
-1
100
AcDbLine
10
637.5
20
-322.5
11
650
21
-322.5
0
LINE
5
1FD
100
AcDbEntity
8
Spanngurt
6
ByLayer
62
256
370
-1
100
AcDbLine
10
650
20
-322.5
11
650
21
-225
0
LINE
5
1FE
100
AcDbEntity
8
Spanngurt
6
ByLayer
62
256
370
-1
100
AcDbLine
10
650
20
-225
11
616
21
-225
0
LINE
5
1FF
100
AcDbEntity
8
Spanngurt
6
ByLayer
62
256
370
-1
100
AcDbLine
10
616
20
-225
11
616
21
-242.5
0
LINE
5
200
100
AcDbEntity
8
Spanngurt
6
ByLayer
62
256
370
-1
100
AcDbLine
10
616
20
-242.5
11
474
21
-242.5
0
MTEXT
5
201
100
AcDbEntity
8
0.18
6
ByLayer
62
256
370
-1
100
AcDbMText
10
440
20
-450
30
0
40
10
41
74.1666666667
71
1
72
1
1
Gurt auen
7
iso
210
0
220
0
230
1
50
0
73
2
44
1
0
LINE
5
202
100
AcDbEntity
8
0.25
6
ByLayer
62
256
370
-1
100
AcDbLine
10
694.777777778
20
-230
11
894.777777778
21
-230
0
LINE
5
203
100
AcDbEntity
8
0.25
6
ByLayer
62
256
370
-1
100
AcDbLine
10
694.777777778
20
-237.5
11
894.777777778
21
-237.5
0
LINE
5
204
100
AcDbEntity
8
0.25
6
ByLayer
62
256
370
-1
100
AcDbLine
10
694.777777778
20
-422.5
11
894.777777778
21
-422.5
0
LINE
5
205
100
AcDbEntity
8
0.25
6
ByLayer
62
256
370
-1
100
AcDbLine
10
694.777777778
20
-430
11
894.777777778
21
-430
0
LINE
5
206
100
AcDbEntity
8
0.25
6
ByLayer
62
256
370
-1
100
AcDbLine
10
694.777777778
20
-230
11
694.777777778
21
-237.5
0
LINE
5
207
100
AcDbEntity
8
0.25
6
ByLayer
62
256
370
-1
100
AcDbLine
10
694.777777778
20
-422.5
11
694.777777778
21
-430
0
LINE
5
208
100
AcDbEntity
8
0.25
6
ByLayer
62
256
370
-1
100
AcDbLine
10
894.777777778
20
-422.5
11
894.777777778
21
-430
0
LINE
5
209
100
AcDbEntity
8
0.25
6
ByLayer
62
256
370
-1
100
AcDbLine
10
694.777777778
20
-237.5
11
694.777777778
21
-422.5
0
LINE
5
20A
100
AcDbEntity
8
0.25
6
ByLayer
62
256
370
-1
100
AcDbLine
10
894.777777778
20
-230
11
894.777777778
21
-237.5
0
LINE
5
20B
100
AcDbEntity
8
0.25
6
ByLayer
62
256
370
-1
100
AcDbLine
10
894.777777778
20
-237.5
11
894.777777778
21
-422.5
0
LINE
5
20C
100
AcDbEntity
8
0.25
6
ByLayer
62
256
370
-1
100
AcDbLine
10
887.277777778
20
-237.5
11
887.277777778
21
-422.5
0
LINE
5
20D
100
AcDbEntity
8
0.25
6
ByLayer
62
256
370
-1
100
AcDbLine
10
702.277777778
20
-237.5
11
702.277777778
21
-422.5
0
LINE
5
20E
100
AcDbEntity
8
Spanngurt
6
ByLayer
62
256
370
-1
100
AcDbLine
10
723.777777778
20
-242.5
11
723.777777778
21
-225
0
LINE
5
20F
100
AcDbEntity
8
Spanngurt
6
ByLayer
62
256
370
-1
100
AcDbLine
10
723.777777778
20
-225
11
689.777777778
21
-225
0
LINE
5
210
100
AcDbEntity
8
Spanngurt
6
ByLayer
62
256
370
-1
100
AcDbLine
10
689.777777778
20
-225
11
689.777777778
21
-257.5
0
LINE
5
211
100
AcDbEntity
8
Spanngurt
6
ByLayer
62
256
370
-1
100
AcDbLine
10
689.777777778
20
-257.5
11
707.277777778
21
-257.5
0
LINE
5
212
100
AcDbEntity
8
Spanngurt
6
ByLayer
62
256
370
-1
100
AcDbLine
10
707.277777778
20
-257.5
11
707.277777778
21
-322.5
0
LINE
5
213
100
AcDbEntity
8
Spanngurt
6
ByLayer
62
256
370
-1
100
AcDbLine
10
707.277777778
20
-322.5
11
689.777777778
21
-322.5
0
LINE
5
214
100
AcDbEntity
8
Spanngurt
6
ByLayer
62
256
370
-1
100
AcDbLine
10
689.777777778
20
-322.5
11
689.777777778
21
-337.5
0
LINE
5
215
100
AcDbEntity
8
Spanngurt
6
ByLayer
62
256
370
-1
100
AcDbLine
10
689.777777778
20
-337.5
11
707.277777778
21
-337.5
0
LINE
5
216
100
AcDbEntity
8
Spanngurt
6
ByLayer
62
256
370
-1
100
AcDbLine
10
707.277777778
20
-337.5
11
707.277777778
21
-402.5
0
LINE
5
217
100
AcDbEntity
8
Spanngurt
6
ByLayer
62
256
370
-1
100
AcDbLine
10
707.277777778
20
-402.5
11
689.777777778
21
-402.5
0
LINE
5
218
100
AcDbEntity
8
Spanngurt
6
ByLayer
62
256
370
-1
100
AcDbLine
10
689.777777778
20
-402.5
11
689.777777778
21
-435
0
LINE
5
219
100
AcDbEntity
8
Spanngurt
6
ByLayer
62
256
370
-1
100
AcDbLine
10
689.777777778
20
-435
11
723.777777778
21
-435
0
LINE
5
21A
100
AcDbEntity
8
Spanngurt
6
ByLayer
62
256
370
-1
100
AcDbLine
10
723.777777778
20
-435
11
723.777777778
21
-417.5
0
LINE
5
21B
100
AcDbEntity
8
Spanngurt
6
ByLayer
62
256
370
-1
100
AcDbLine
10
723.777777778
20
-417.5
11
865.777777778
21
-417.5
0
LINE
5
21C
100
AcDbEntity
8
Spanngurt
6
ByLayer
62
256
370
-1
100
AcDbLine
10
865.777777778
20
-417.5
11
865.777777778
21
-435
0
LINE
5
21D
100
AcDbEntity
8
Spanngurt
6
ByLayer
62
256
370
-1
100
AcDbLine
10
865.777777778
20
-435
11
899.777777778
21
-435
0
LINE
5
21E
100
AcDbEntity
8
Spanngurt
6
ByLayer
62
256
370
-1
100
AcDbLine
10
899.777777778
20
-435
11
899.777777778
21
-402.5
0
LINE
5
21F
100
AcDbEntity
8
Spanngurt
6
ByLayer
62
256
370
-1
100
AcDbLine
10
899.777777778
20
-402.5
11
882.277777778
21
-402.5
0
LINE
5
220
100
AcDbEntity
8
Spanngurt
6
ByLayer
62
256
370
-1
100
AcDbLine
10
882.277777778
20
-402.5
11
882.277777778
21
-337.5
0
LINE
5
221
100
AcDbEntity
8
Spanngurt
6
ByLayer
62
256
370
-1
100
AcDbLine
10
882.277777778
20
-337.5
11
899.777777778
21
-337.5
0
LINE
5
222
100
AcDbEntity
8
Spanngurt
6
ByLayer
62
256
370
-1
100
AcDbLine
10
899.777777778
20
-337.5
11
899.777777778
21
-322.5
0
LINE
5
223
100
AcDbEntity
8
Spanngurt
6
ByLayer
62
256
370
-1
100
AcDbLine
10
899.777777778
20
-322.5
11
882.277777778
21
-322.5
0
LINE
5
224
100
AcDbEntity
8
Spanngurt
6
ByLayer
62
256
370
-1
100
AcDbLine
10
882.277777778
20
-322.5
11
882.277777778
21
-257.5
0
LINE
5
225
100
AcDbEntity
8
Spanngurt
6
ByLayer
62
256
370
-1
100
AcDbLine
10
882.277777778
20
-257.5
11
899.777777778
21
-257.5
0
LINE
5
226
100
AcDbEntity
8
Spanngurt
6
ByLayer
62
256
370
-1
100
AcDbLine
10
899.777777778
20
-257.5
11
899.777777778
21
-225
0
LINE
5
227
100
AcDbEntity
8
Spanngurt
6
ByLayer
62
256
370
-1
100
AcDbLine
10
899.777777778
20
-225
11
865.777777778
21
-225
0
LINE
5
228
100
AcDbEntity
8
Spanngurt
6
ByLayer
62
256
370
-1
100
AcDbLine
10
865.777777778
20
-225
11
865.777777778
21
-242.5
0
LINE
5
229
100
AcDbEntity
8
Spanngurt
6
ByLayer
62
256
370
-1
100
AcDbLine
10
865.777777778
20
-242.5
11
723.777777778
21
-242.5
0
MTEXT
5
22A
100
AcDbEntity
8
0.18
6
ByLayer
62
256
370
-1
100
AcDbMText
10
689.777777778
20
-450
30
0
40
10
41
68.6111111111
71
1
72
1
1
Gurt innen
7
iso
210
0
220
0
230
1
50
0
73
2
44
1
0
LINE
5
22B
100
AcDbEntity
8
0.35
6
ByLayer
62
256
370
-1
100
AcDbLine
10
470
20
2
11
870
21
2
0
LINE
5
22C
100
AcDbEntity
8
0.35
6
ByLayer
62
256
370
-1
100
AcDbLine
10
470
20
372
11
870
21
372
0
LINE
5
22D
100
AcDbEntity
8
0.35
6
ByLayer
62
256
370
-1
100
AcDbLine
10
470
20
372
11
470
21
2
0
LINE
5
22E
100
AcDbEntity
8
0.35
6
ByLayer
62
256
370
-1
100
AcDbLine
10
870
20
372
11
870
21
2
0
ARC
5
22F
100
AcDbEntity
8
0.35
6
ByLayer
62
256
370
-1
100
AcDbCircle
10
655.5
20
333
40
0.5
100
AcDbArc
50
90
51
180
0
LINE
5
230
100
AcDbEntity
8
0.35
6
ByLayer
62
256
370
-1
100
AcDbLine
10
655
20
331
11
655
21
333
0
ARC
5
231
100
AcDbEntity
8
0.35
6
ByLayer
62
256
370
-1
100
AcDbCircle
10
655.5
20
331
40
0.5
100
AcDbArc
50
180
51
270
0
LINE
5
232
100
AcDbEntity
8
0.35
6
ByLayer
62
256
370
-1
100
AcDbLine
10
684.5
20
330.5
11
655.5
21
330.5
0
ARC
5
233
100
AcDbEntity
8
0.35
6
ByLayer
62
256
370
-1
100
AcDbCircle
10
684.5
20
331
40
0.5
100
AcDbArc
50
270
51
0
0
LINE
5
234
100
AcDbEntity
8
0.35
6
ByLayer
62
256
370
-1
100
AcDbLine
10
685
20
333
11
685
21
331
0
LINE
5
235
100
AcDbEntity
8
0.35
6
ByLayer
62
256
370
-1
100
AcDbLine
10
655.5
20
333.5
11
684.5
21
333.5
0
ARC
5
236
100
AcDbEntity
8
0.35
6
ByLayer
62
256
370
-1
100
AcDbCircle
10
684.5
20
333
40
0.5
100
AcDbArc
50
0
51
90
0
ARC
5
237
100
AcDbEntity
8
0.35
6
ByLayer
62
256
370
-1
100
AcDbCircle
10
525.5
20
201
40
0.5
100
AcDbArc
50
180
51
270
0
LINE
5
238
100
AcDbEntity
8
0.35
6
ByLayer
62
256
370
-1
100
AcDbLine
10
525
20
201
11
525
21
203
0
ARC
5
239
100
AcDbEntity
8
0.35
6
ByLayer
62
256
370
-1
100
AcDbCircle
10
525.5
20
203
40
0.5
100
AcDbArc
50
90
51
180
0
LINE
5
23A
100
AcDbEntity
8
0.35
6
ByLayer
62
256
370
-1
100
AcDbLine
10
525.5
20
203.5
11
554.5
21
203.5
0
ARC
5
23B
100
AcDbEntity
8
0.35
6
ByLayer
62
256
370
-1
100
AcDbCircle
10
554.5
20
203
40
0.5
100
AcDbArc
50
0
51
90
0
LINE
5
23C
100
AcDbEntity
8
0.35
6
ByLayer
62
256
370
-1
100
AcDbLine
10
555
20
203
11
555
21
201
0
LINE
5
23D
100
AcDbEntity
8
0.35
6
ByLayer
62
256
370
-1
100
AcDbLine
10
554.5
20
200.5
11
525.5
21
200.5
0
ARC
5
23E
100
AcDbEntity
8
0.35
6
ByLayer
62
256
370
-1
100
AcDbCircle
10
554.5
20
201
40
0.5
100
AcDbArc
50
270
51
0
0
ARC
5
23F
100
AcDbEntity
8
0.35
6
ByLayer
62
256
370
-1
100
AcDbCircle
10
525.5
20
173
40
0.5
100
AcDbArc
50
90
51
180
0
LINE
5
240
100
AcDbEntity
8
0.35
6
ByLayer
62
256
370
-1
100
AcDbLine
10
525
20
171
11
525
21
173
0
ARC
5
241
100
AcDbEntity
8
0.35
6
ByLayer
62
256
370
-1
100
AcDbCircle
10
525.5
20
171
40
0.5
100
AcDbArc
50
180
51
270
0
LINE
5
242
100
AcDbEntity
8
0.35
6
ByLayer
62
256
370
-1
100
AcDbLine
10
525.5
20
173.5
11
554.5
21
173.5
0
ARC
5
243
100
AcDbEntity
8
0.35
6
ByLayer
62
256
370
-1
100
AcDbCircle
10
554.5
20
173
40
0.5
100
AcDbArc
50
0
51
90
0
LINE
5
244
100
AcDbEntity
8
0.35
6
ByLayer
62
256
370
-1
100
AcDbLine
10
555
20
173
11
555
21
171
0
LINE
5
245
100
AcDbEntity
8
0.35
6
ByLayer
62
256
370
-1
100
AcDbLine
10
554.5
20
170.5
11
525.5
21
170.5
0
ARC
5
246
100
AcDbEntity
8
0.35
6
ByLayer
62
256
370
-1
100
AcDbCircle
10
554.5
20
171
40
0.5
100
AcDbArc
50
270
51
0
0
ARC
5
247
100
AcDbEntity
8
0.35
6
ByLayer
62
256
370
-1
100
AcDbCircle
10
655.5
20
203
40
0.5
100
AcDbArc
50
90
51
180
0
LINE
5
248
100
AcDbEntity
8
0.35
6
ByLayer
62
256
370
-1
100
AcDbLine
10
655
20
201
11
655
21
203
0
ARC
5
249
100
AcDbEntity
8
0.35
6
ByLayer
62
256
370
-1
100
AcDbCircle
10
655.5
20
201
40
0.5
100
AcDbArc
50
180
51
270
0
LINE
5
24A
100
AcDbEntity
8
0.35
6
ByLayer
62
256
370
-1
100
AcDbLine
10
655.5
20
203.5
11
684.5
21
203.5
0
ARC
5
24B
100
AcDbEntity
8
0.35
6
ByLayer
62
256
370
-1
100
AcDbCircle
10
684.5
20
203
40
0.5
100
AcDbArc
50
0
51
90
0
LINE
5
24C
100
AcDbEntity
8
0.35
6
ByLayer
62
256
370
-1
100
AcDbLine
10
685
20
203
11
685
21
201
0
LINE
5
24D
100
AcDbEntity
8
0.35
6
ByLayer
62
256
370
-1
100
AcDbLine
10
684.5
20
200.5
11
655.5
21
200.5
0
ARC
5
24E
100
AcDbEntity
8
0.35
6
ByLayer
62
256
370
-1
100
AcDbCircle
10
684.5
20
201
40
0.5
100
AcDbArc
50
270
51
0
0
ARC
5
24F
100
AcDbEntity
8
0.35
6
ByLayer
62
256
370
-1
100
AcDbCircle
10
655.5
20
173
40
0.5
100
AcDbArc
50
90
51
180
0
LINE
5
250
100
AcDbEntity
8
0.35
6
ByLayer
62
256
370
-1
100
AcDbLine
10
655.5
20
173.5
11
684.5
21
173.5
0
ARC
5
251
100
AcDbEntity
8
0.35
6
ByLayer
62
256
370
-1
100
AcDbCircle
10
684.5
20
173
40
0.5
100
AcDbArc
50
0
51
90
0
LINE
5
252
100
AcDbEntity
8
0.35
6
ByLayer
62
256
370
-1
100
AcDbLine
10
685
20
173
11
685
21
171
0
ARC
5
253
100
AcDbEntity
8
0.35
6
ByLayer
62
256
370
-1
100
AcDbCircle
10
684.5
20
171
40
0.5
100
AcDbArc
50
270
51
0
0
LINE
5
254
100
AcDbEntity
8
0.35
6
ByLayer
62
256
370
-1
100
AcDbLine
10
684.5
20
170.5
11
655.5
21
170.5
0
LINE
5
255
100
AcDbEntity
8
0.35
6
ByLayer
62
256
370
-1
100
AcDbLine
10
655
20
171
11
655
21
173
0
ARC
5
256
100
AcDbEntity
8
0.35
6
ByLayer
62
256
370
-1
100
AcDbCircle
10
655.5
20
171
40
0.5
100
AcDbArc
50
180
51
270
0
ARC
5
257
100
AcDbEntity
8
0.35
6
ByLayer
62
256
370
-1
100
AcDbCircle
10
785.5
20
203
40
0.5
100
AcDbArc
50
90
51
180
0
LINE
5
258
100
AcDbEntity
8
0.35
6
ByLayer
62
256
370
-1
100
AcDbLine
10
785
20
201
11
785
21
203
0
ARC
5
259
100
AcDbEntity
8
0.35
6
ByLayer
62
256
370
-1
100
AcDbCircle
10
785.5
20
201
40
0.5
100
AcDbArc
50
180
51
270
0
LINE
5
25A
100
AcDbEntity
8
0.35
6
ByLayer
62
256
370
-1
100
AcDbLine
10
785.5
20
203.5
11
814.5
21
203.5
0
ARC
5
25B
100
AcDbEntity
8
0.35
6
ByLayer
62
256
370
-1
100
AcDbCircle
10
814.5
20
203
40
0.5
100
AcDbArc
50
0
51
90
0
LINE
5
25C
100
AcDbEntity
8
0.35
6
ByLayer
62
256
370
-1
100
AcDbLine
10
815
20
203
11
815
21
201
0
LINE
5
25D
100
AcDbEntity
8
0.35
6
ByLayer
62
256
370
-1
100
AcDbLine
10
814.5
20
200.5
11
785.5
21
200.5
0
ARC
5
25E
100
AcDbEntity
8
0.35
6
ByLayer
62
256
370
-1
100
AcDbCircle
10
814.5
20
201
40
0.5
100
AcDbArc
50
270
51
0
0
ARC
5
25F
100
AcDbEntity
8
0.35
6
ByLayer
62
256
370
-1
100
AcDbCircle
10
785.5
20
173
40
0.5
100
AcDbArc
50
90
51
180
0
LINE
5
260
100
AcDbEntity
8
0.35
6
ByLayer
62
256
370
-1
100
AcDbLine
10
785.5
20
173.5
11
814.5
21
173.5
0
ARC
5
261
100
AcDbEntity
8
0.35
6
ByLayer
62
256
370
-1
100
AcDbCircle
10
814.5
20
173
40
0.5
100
AcDbArc
50
0
51
90
0
LINE
5
262
100
AcDbEntity
8
0.35
6
ByLayer
62
256
370
-1
100
AcDbLine
10
815
20
173
11
815
21
171
0
ARC
5
263
100
AcDbEntity
8
0.35
6
ByLayer
62
256
370
-1
100
AcDbCircle
10
814.5
20
171
40
0.5
100
AcDbArc
50
270
51
0
0
LINE
5
264
100
AcDbEntity
8
0.35
6
ByLayer
62
256
370
-1
100
AcDbLine
10
785
20
171
11
785
21
173
0
LINE
5
265
100
AcDbEntity
8
0.35
6
ByLayer
62
256
370
-1
100
AcDbLine
10
814.5
20
170.5
11
785.5
21
170.5
0
ARC
5
266
100
AcDbEntity
8
0.35
6
ByLayer
62
256
370
-1
100
AcDbCircle
10
785.5
20
171
40
0.5
100
AcDbArc
50
180
51
270
0
ARC
5
267
100
AcDbEntity
8
0.35
6
ByLayer
62
256
370
-1
100
AcDbCircle
10
655.5
20
43
40
0.5
100
AcDbArc
50
90
51
180
0
LINE
5
268
100
AcDbEntity
8
0.35
6
ByLayer
62
256
370
-1
100
AcDbLine
10
655
20
41
11
655
21
43
0
ARC
5
269
100
AcDbEntity
8
0.35
6
ByLayer
62
256
370
-1
100
AcDbCircle
10
655.5
20
41
40
0.5
100
AcDbArc
50
180
51
270
0
LINE
5
26A
100
AcDbEntity
8
0.35
6
ByLayer
62
256
370
-1
100
AcDbLine
10
655.5
20
43.5
11
684.5
21
43.5
0
ARC
5
26B
100
AcDbEntity
8
0.35
6
ByLayer
62
256
370
-1
100
AcDbCircle
10
684.5
20
43
40
0.5
100
AcDbArc
50
0
51
90
0
LINE
5
26C
100
AcDbEntity
8
0.35
6
ByLayer
62
256
370
-1
100
AcDbLine
10
685
20
43
11
685
21
41
0
LINE
5
26D
100
AcDbEntity
8
0.35
6
ByLayer
62
256
370
-1
100
AcDbLine
10
684.5
20
40.5
11
655.5
21
40.5
0
ARC
5
26E
100
AcDbEntity
8
0.35
6
ByLayer
62
256
370
-1
100
AcDbCircle
10
684.5
20
41
40
0.5
100
AcDbArc
50
270
51
0
0
DIMENSION
5
26F
100
AcDbEntity
8
0.18
6
ByLayer
62
256
370
-1
100
AcDbDimension
2
*D13
10
440
20
372
30
0
11
433
21
187
31
0
70
33
71
5
3
Standard
53
0
210
0
220
0
230
1
100
AcDbAlignedDimension
13
470
23
2
33
0
14
470
24
372
34
0
0
DIMENSION
5
270
100
AcDbEntity
8
0.18
6
ByLayer
62
256
370
-1
100
AcDbDimension
2
*D14
10
870
20
-28
30
0
11
670
21
-21
31
0
70
33
71
5
3
Standard
53
0
210
0
220
0
230
1
100
AcDbAlignedDimension
13
470
23
2
33
0
14
870
24
2
34
0
0
LINE
5
271
100
AcDbEntity
8
0.13-strichpunkt
6
ByLayer
62
256
370
-1
100
AcDbLine
10
685
20
42
11
655
21
42
0
LINE
5
272
100
AcDbEntity
8
0.13-strichpunkt
6
ByLayer
62
256
370
-1
100
AcDbLine
10
670
20
43.5
11
670
21
40.5
0
LINE
5
273
100
AcDbEntity
8
0.13-strichpunkt
6
ByLayer
62
256
370
-1
100
AcDbLine
10
555
20
172
11
525
21
172
0
LINE
5
274
100
AcDbEntity
8
0.13-strichpunkt
6
ByLayer
62
256
370
-1
100
AcDbLine
10
555
20
202
11
525
21
202
0
DIMENSION
5
275
100
AcDbEntity
8
0.18
6
ByLayer
62
256
370
-1
100
AcDbDimension
2
*D15
10
520
20
2
30
0
11
513
21
87
31
0
70
32
71
5
3
Standard
53
0
210
0
220
0
230
1
100
AcDbAlignedDimension
13
525
23
172
33
0
14
470
24
2
34
0
50
90
100
AcDbRotatedDimension
0
DIMENSION
5
276
100
AcDbEntity
8
0.18
6
ByLayer
62
256
370
-1
100
AcDbDimension
2
*D16
10
500
20
2
30
0
11
493
21
102
31
0
70
32
71
5
3
Standard
53
0
210
0
220
0
230
1
100
AcDbAlignedDimension
13
525
23
202
33
0
14
470
24
2
34
0
50
90
100
AcDbRotatedDimension
0
DIMENSION
5
277
100
AcDbEntity
8
0.18
6
ByLayer
62
256
370
-1
100
AcDbDimension
2
*D17
10
640
20
2
30
0
11
633
21
22
31
0
70
32
71
5
3
Standard
53
0
210
0
220
0
230
1
100
AcDbAlignedDimension
13
655
23
42
33
0
14
470
24
2
34
0
50
90
100
AcDbRotatedDimension
0
DIMENSION
5
278
100
AcDbEntity
8
0.18
6
ByLayer
62
256
370
-1
100
AcDbDimension
2
*D18
10
470
20
212
30
0
11
505
21
219
31
0
70
32
71
5
3
Standard
53
0
210
0
220
0
230
1
100
AcDbAlignedDimension
13
540
23
203.5
33
0
14
470
24
2
34
0
100
AcDbRotatedDimension
0
DIMENSION
5
279
100
AcDbEntity
8
0.18
6
ByLayer
62
256
370
-1
100
AcDbDimension
2
*D19
10
470
20
232
30
0
11
570
21
239
31
0
70
32
71
5
3
Standard
53
0
210
0
220
0
230
1
100
AcDbAlignedDimension
13
670
23
203.5
33
0
14
470
24
2
34
0
100
AcDbRotatedDimension
0
DIMENSION
5
27A
100
AcDbEntity
8
0.18
6
ByLayer
62
256
370
-1
100
AcDbDimension
2
*D20
10
470
20
252
30
0
11
635
21
259
31
0
70
32
71
5
3
Standard
53
0
210
0
220
0
230
1
100
AcDbAlignedDimension
13
800
23
203.5
33
0
14
470
24
2
34
0
100
AcDbRotatedDimension
0
DIMENSION
5
27B
100
AcDbEntity
8
0.18
6
ByLayer
62
256
370
-1
100
AcDbDimension
2
*D21
10
470
20
342
30
0
11
570
21
349
31
0
70
32
71
5
3
Standard
53
0
210
0
220
0
230
1
100
AcDbAlignedDimension
13
670
23
333.5
33
0
14
470
24
2
34
0
100
AcDbRotatedDimension
0
ENDSEC
0
SECTION
2
OBJECTS
0
DICTIONARY
5
C
330
0
100
AcDbDictionary
281
1
3
ACAD_GROUP
350
D
0
DICTIONARY
5
D
330
C
100
AcDbDictionary
281
1
0
ENDSEC
0
EOF
